<?xml version="1.0" encoding="UTF-8"?>
<svg version="1.1" xmlns="http://www.w3.org/2000/svg" width="1080" height="1080">
<path d="M0 0 C-0.00075944 0.77813476 -0.00151888 1.55626952 -0.00230134 2.35798413 C-0.04704295 48.46125123 -0.08136577 94.56451597 -0.10213066 140.66780043 C-0.10463212 146.20162936 -0.10722076 151.73545825 -0.10986328 157.26928711 C-0.1103879 158.37098779 -0.11091252 159.47268846 -0.11145304 160.60777401 C-0.1201592 178.45389817 -0.13593034 196.30000946 -0.15430559 214.14612598 C-0.17299876 232.45348988 -0.18411549 250.76084703 -0.18817699 269.06822008 C-0.19092325 280.36776337 -0.19960184 291.66727031 -0.21583293 302.96680241 C-0.22639261 310.7119201 -0.22960293 318.45701895 -0.22700275 326.20214332 C-0.22571988 330.67279872 -0.22770723 335.14339052 -0.23841095 339.61403465 C-0.24813885 343.70695346 -0.24863788 347.79976583 -0.24179779 351.89268952 C-0.24095231 353.37329093 -0.24349328 354.85389896 -0.24976636 356.33448733 C-0.25780231 358.34826104 -0.25226745 360.36207516 -0.24609566 362.37585545 C-0.2468551 363.49413182 -0.24761454 364.61240819 -0.24839699 365.76457173 C0.11300613 370.47193099 0.92086152 374.58595648 3.8125 378.375 C6.44441834 380.33013934 7.70811165 380.92518436 11 381 C18.49430761 378.64986869 25.12394718 374.78374487 31.9375 370.9375 C33.15813691 370.25356138 34.37892293 369.56988884 35.59985352 368.88647461 C42.57321547 364.97444416 49.50519755 360.99679776 56.37695312 356.90869141 C63.0180573 352.96333861 69.72673466 349.13762382 76.4375 345.3125 C85.63932807 340.0662026 94.82935039 334.80071827 104 329.5 C113.61570562 323.94230531 123.25361331 318.42458373 132.9022522 312.92437744 C142.00275229 307.73480107 151.05758024 302.47086943 160.09375 297.17016602 C168.59740273 292.19852542 177.1849275 287.38255371 185.80541992 282.61669922 C191.78452363 279.31836408 191.78452363 279.31836408 197.4609375 275.5390625 C200 274 200 274 202.12109375 273.94921875 C204.79827029 275.4464339 206.20021613 277.3793478 208.0625 279.8125 C240.14040978 320.34301776 286.82578879 344.76233908 338 351 C341.00897698 351.1644114 344.01430751 351.2099666 347.02734375 351.23828125 C347.88504868 351.2480751 348.7427536 351.25786896 349.62644958 351.26795959 C387.93142585 351.61518291 420.93855386 345.0193819 455 327 C455.61262695 326.67773438 456.22525391 326.35546875 456.85644531 326.0234375 C479.66370291 313.89899586 499.69354097 295.68309495 515 275 C518.86935194 275.59138567 521.71555664 276.74230778 525.11328125 278.66796875 C526.10110596 279.22403809 527.08893066 279.78010742 528.10668945 280.35302734 C529.16460693 280.95840332 530.22252441 281.5637793 531.3125 282.1875 C532.42262451 282.8160791 533.53274902 283.4446582 534.67651367 284.09228516 C543.0793675 288.86451124 551.43284587 293.72121053 559.76928711 298.60839844 C567.44133413 303.10415199 575.14988068 307.53379598 582.875 311.9375 C592.98872194 317.70364421 603.08425568 323.50016672 613.16210938 329.32885742 C619.00058515 332.70260617 624.84893845 336.05797774 630.7109375 339.390625 C631.67401825 339.93867798 631.67401825 339.93867798 632.65655518 340.49780273 C635.77440538 342.27199177 638.89365795 344.04361204 642.015625 345.81054688 C643.13195312 346.44541016 644.24828125 347.08027344 645.3984375 347.734375 C646.38505371 348.29350586 647.37166992 348.85263672 648.38818359 349.42871094 C650.73403068 350.83999079 652.92527287 352.2132418 655 354 C655 354.66 655 355.32 655 356 C654.27111572 356.40202637 653.54223145 356.80405273 652.79125977 357.21826172 C635.1002497 366.9649386 635.1002497 366.9649386 617.625 377.09057617 C610.98269039 381.03524586 604.27386879 384.86203222 597.5625 388.6875 C588.36067101 393.93379793 579.17074491 399.19944553 570 404.5 C561.05451435 409.6684122 552.09636538 414.81416352 543.125 419.9375 C542.54528442 420.26860779 541.96556885 420.59971558 541.36828613 420.94085693 C535.45983362 424.31521064 529.54986911 427.68690462 523.63832092 431.05583191 C520.67509502 432.74476211 517.71241688 434.43465122 514.75 436.125 C514.16723297 436.45746735 513.58446594 436.78993469 512.98403931 437.13247681 C504.8979036 441.74769213 496.84441903 446.41606336 488.8125 451.125 C479.55948769 456.54963146 470.22602065 461.81674912 460.85595703 467.03613281 C454.42638635 470.62346424 448.05061407 474.28345323 441.72070312 478.04321289 C435.04387732 481.99905781 428.30441191 485.84409796 421.5625 489.6875 C412.36075433 494.93394543 403.17074618 500.1994448 394 505.5 C385.05451435 510.6684122 376.09636538 515.81416352 367.125 520.9375 C366.54528442 521.26860779 365.96556885 521.59971558 365.36828613 521.94085693 C359.45983362 525.31521064 353.54986911 528.68690462 347.63832092 532.05583191 C344.67509502 533.74476211 341.71241688 535.43465122 338.75 537.125 C337.87584946 537.62370102 337.87584946 537.62370102 336.98403931 538.13247681 C328.89790307 542.74769243 320.84444921 547.4161144 312.8125 552.125 C303.72204419 557.45362814 294.55424471 562.6291316 285.34814453 567.75488281 C277.24825664 572.27510627 269.22741584 576.91960665 261.22607422 581.61157227 C252.3875656 586.78952151 243.50105607 591.88142058 234.59619141 596.9440918 C228.67408603 600.31350022 222.77151794 603.71097498 216.90234375 607.171875 C215.74150573 607.85317097 214.58053736 608.5342449 213.41943359 609.21508789 C211.26269195 610.48231085 209.11027086 611.75693213 206.96337891 613.04077148 C186.29295164 625.15111079 163.29978584 629.34119423 139.86328125 624.01171875 C118.6832456 618.46507645 99.93095293 605.35137154 81.22387695 594.38818359 C73.59411073 589.91741916 65.93091409 585.50711358 58.25 581.125 C57.66701141 580.79230103 57.08402283 580.45960205 56.48336792 580.11682129 C52.32313452 577.74298665 48.16171494 575.37123606 44 573 C39.24917803 570.29310621 34.49892823 567.585215 29.75 564.875 C28.87711838 564.37693344 28.87711838 564.37693344 27.98660278 563.86880493 C18.86587103 558.66223464 9.78767948 553.38551973 0.72558594 548.07763672 C-6.92536319 543.60502893 -14.63183119 539.23717482 -22.35668945 534.89379883 C-30.2934129 530.4220716 -38.16009506 525.83632204 -46.01953125 521.23046875 C-52.81174977 517.25732925 -59.64093713 513.35646353 -66.5 509.5 C-75.39209561 504.50047702 -84.21448134 499.39120401 -93.01513672 494.23266602 C-99.84877658 490.23463731 -106.72335538 486.31674471 -113.625 482.4375 C-116.45720773 480.83731238 -119.28813666 479.23489976 -122.11816406 477.63085938 C-124.08691424 476.51672423 -126.05771509 475.406207 -128.03027344 474.29882812 C-131.02906415 472.61015147 -134.01546342 470.90121619 -137 469.1875 C-138.35279053 468.43327759 -138.35279053 468.43327759 -139.73291016 467.66381836 C-147.95808918 462.89421095 -153.90876268 457.10197656 -157 448 C-157.842345 444.45485293 -158.12660484 441.17851339 -158.13142776 437.53842354 C-158.13526891 436.44741596 -158.13911005 435.35640839 -158.1430676 434.23233998 C-158.14220112 433.03926916 -158.14133463 431.84619835 -158.14044189 430.61697388 C-158.14341302 429.34513335 -158.14638414 428.07329283 -158.1494453 426.76291168 C-158.15750329 423.23447097 -158.15930421 419.70605063 -158.16004276 416.17760181 C-158.16189551 412.37095407 -158.16944416 408.56431683 -158.17617798 404.75767517 C-158.18975526 396.43285088 -158.19578563 388.1080314 -158.20018864 379.78319788 C-158.20295317 374.58103871 -158.20719102 369.3788814 -158.21169281 364.17672348 C-158.22388675 349.76319305 -158.23418448 335.3496641 -158.2375679 320.93612862 C-158.23778747 320.01371533 -158.23800703 319.09130205 -158.23823325 318.14093684 C-158.23845153 317.21635051 -158.23866981 316.29176418 -158.2388947 315.33916008 C-158.23933816 313.46569006 -158.23978473 311.59222003 -158.24023438 309.71875 C-158.2404558 308.78944974 -158.24067723 307.86014948 -158.24090537 306.90268861 C-158.24484896 291.86227719 -158.26228898 276.82191436 -158.2855939 261.78152169 C-158.30934769 246.32610944 -158.32177165 230.87072151 -158.32293582 215.41529071 C-158.32385054 206.74331637 -158.32955116 198.07140526 -158.34775543 189.39944839 C-158.36321114 182.01087905 -158.36824494 174.62239247 -158.36001733 167.23381002 C-158.35612953 163.46890922 -158.35694786 159.70417479 -158.37107468 155.93929482 C-158.47255268 127.20473948 -155.50323699 102.8705314 -135.0390625 80.984375 C-127.99311192 73.94932584 -120.88207068 68.37493573 -112.1875 63.5 C-110.63748291 62.61332642 -110.63748291 62.61332642 -109.05615234 61.70874023 C-106.84754252 60.44684232 -104.63620374 59.18971046 -102.42236328 57.93701172 C-98.98274695 55.990235 -95.55091061 54.03038991 -92.12109375 52.06640625 C-88.01149486 49.71335245 -83.90022353 47.36329318 -79.78623962 45.01791382 C-72.51021578 40.86933604 -65.25162901 36.69107025 -58 32.5 C-44.3599429 24.61989044 -30.68967666 16.79355265 -17 9 C-15.63077393 8.22027832 -15.63077393 8.22027832 -14.23388672 7.42480469 C-11.92838672 6.11363256 -9.62106174 4.80577185 -7.3125 3.5 C-6.66522949 3.13213379 -6.01795898 2.76426758 -5.35107422 2.38525391 C-1.11709983 0 -1.11709983 0 0 0 Z " fill="#B90A21" transform="translate(181,442)"/>
<path d="M0 0 C7.86998972 3.93499486 15.4620313 7.90022306 23 12.375 C25.10872844 13.61568292 27.21813133 14.85522004 29.328125 16.09375 C30.96491211 17.05474609 30.96491211 17.05474609 32.63476562 18.03515625 C38.31794211 21.35336608 44.03311869 24.61532229 49.75 27.875 C50.92806587 28.54719005 52.10612574 29.21939062 53.28417969 29.89160156 C56.85547979 31.92885785 60.42765722 33.96457275 64 36 C68.75082192 38.70689376 73.50111834 41.41470346 78.25 44.125 C78.83358276 44.45804138 79.41716553 44.79108276 80.01843262 45.13421631 C89.02121023 50.27433887 97.98461691 55.47933775 106.93164062 60.71582031 C114.51244973 65.14671567 122.12379751 69.52284779 129.75 73.875 C130.3332605 74.20788025 130.916521 74.5407605 131.51745605 74.88372803 C135.67741229 77.25738385 139.83857123 79.628927 144 82 C148.75082192 84.70689376 153.50111834 87.41470346 158.25 90.125 C159.12537415 90.62456207 159.12537415 90.62456207 160.01843262 91.13421631 C169.02121023 96.27433887 177.98461691 101.47933775 186.93164062 106.71582031 C194.51244973 111.14671567 202.12379751 115.52284779 209.75 119.875 C210.3332605 120.20788025 210.916521 120.5407605 211.51745605 120.88372803 C215.67741229 123.25738385 219.83857123 125.628927 224 128 C228.75082192 130.70689376 233.50111834 133.41470346 238.25 136.125 C238.83358276 136.45804138 239.41716553 136.79108276 240.01843262 137.13421631 C249.02121023 142.27433887 257.98461691 147.47933775 266.93164062 152.71582031 C274.51244973 157.14671567 282.12379751 161.52284779 289.75 165.875 C290.3332605 166.20788025 290.916521 166.5407605 291.51745605 166.88372803 C295.67741229 169.25738385 299.83857123 171.628927 304 174 C308.75082192 176.70689376 313.50111834 179.41470346 318.25 182.125 C318.83358276 182.45804138 319.41716553 182.79108276 320.01843262 183.13421631 C329.01978768 188.27352667 337.9821319 193.47711291 346.92724609 198.71362305 C355.13943329 203.51435399 363.39277179 208.24149269 371.65625 212.953125 C381.18911089 218.38852814 390.70128269 223.85880922 400.20166016 229.35083008 C406.41472314 232.93971006 412.63759353 236.51051043 418.87268066 240.06092834 C424.14821216 243.06507038 429.41556934 246.08331436 434.68164062 249.10400391 C437.8588426 250.91934753 441.04589267 252.7162874 444.234375 254.51171875 C454.63561323 260.42838391 463.7502881 266.26737813 472 275 C472.74121094 275.74636719 473.48242188 276.49273438 474.24609375 277.26171875 C494.48935223 298.57645405 495.46532947 325.53383391 495.40683305 353.15775621 C495.40205758 356.96483179 495.41464906 360.77185896 495.42485046 364.57891846 C495.44195523 372.01471476 495.44289639 379.45042627 495.43763756 386.88623712 C495.43358128 392.93172686 495.43505662 398.97719171 495.44038582 405.02268028 C495.44113424 405.88602456 495.44188266 406.74936884 495.44265376 407.63887506 C495.44418536 409.39316848 495.44572371 411.14746189 495.44726873 412.9017553 C495.46096204 429.31158698 495.45557702 445.72137084 495.44408352 462.13120141 C495.43414053 477.12837503 495.44711584 492.12542546 495.47101771 507.12258009 C495.4954208 522.55121186 495.50501447 537.97978628 495.49836498 553.40843695 C495.49487725 562.05889104 495.49707612 570.70925028 495.51461601 579.35968971 C495.52935254 586.71812832 495.52995379 594.07640517 495.5125451 601.43484066 C495.50404725 605.18518441 495.50185584 608.93523935 495.51719666 612.68556786 C495.5336486 616.75800344 495.51886518 620.82974542 495.50120544 624.9021759 C495.51081045 626.07708755 495.52041546 627.25199919 495.53031152 628.46251422 C495.45126004 637.34154557 493.74668034 644.8407412 488.8125 652.3125 C481.99261481 658.82927918 473.33006739 663.22494321 465.1875 667.875 C464.06021484 668.52210938 462.93292969 669.16921875 461.77148438 669.8359375 C458.18354465 671.89510291 454.59200926 673.94794422 451 676 C449.82631922 676.67087148 448.65265372 677.34176967 447.47900391 678.01269531 C442.80863752 680.68218696 438.13778562 683.35082511 433.46557617 686.01708984 C424.55866902 691.10118868 415.67285553 696.22128473 406.79345703 701.35327148 C398.83561246 705.94943607 390.85822801 710.51065947 382.875 715.0625 C374.22304049 719.99596786 365.59527875 724.96828511 357 730 C348.44450589 735.00745104 339.85975755 739.96154859 331.25 744.875 C330.6667395 745.20788025 330.083479 745.5407605 329.48254395 745.88372803 C324.72563102 748.59800516 319.96709282 751.30942831 315.20849609 754.02075195 C311.05491023 756.38751434 306.90199809 758.75545323 302.75 761.125 C302.16807892 761.45704437 301.58615784 761.78908875 300.98660278 762.13119507 C291.86587103 767.33776536 282.78767948 772.61448027 273.72558594 777.92236328 C266.08376561 782.38963454 258.38855821 786.75611591 250.66967773 791.08862305 C245.62123037 793.9292693 240.60025726 796.80921396 235.609375 799.75 C234.01512695 800.68875977 234.01512695 800.68875977 232.38867188 801.64648438 C230.36624405 802.8408117 228.34649192 804.03968744 226.33007812 805.24414062 C217.85590867 810.24866401 209.26892347 814.6378303 199.75 817.25 C198.63109375 817.56453125 197.5121875 817.8790625 196.359375 818.203125 C166.42463683 825.30392336 141.56233228 814.04169457 116.26730347 799.09837341 C110.50066692 795.69456399 104.68955681 792.3702348 98.87057495 789.0567627 C97.11753665 788.05824895 95.36538671 787.05819431 93.61352539 786.05761719 C88.29005477 783.0171485 82.96485795 779.97971619 77.63851929 776.9442749 C62.97509285 768.58671033 48.35279842 760.16274255 33.7890625 751.63232422 C28.8627268 748.7491414 23.93117093 745.87490277 19 743 C21.36271395 740.38287714 23.83435853 738.82678251 26.91796875 737.13671875 C27.91223877 736.58709473 28.90650879 736.0374707 29.9309082 735.47119141 C31.54292114 734.58826416 31.54292114 734.58826416 33.1875 733.6875 C35.47754445 732.41974089 37.76658359 731.15016438 40.0546875 729.87890625 C40.92922325 729.39330231 40.92922325 729.39330231 41.82142639 728.89788818 C47.53190539 725.71936404 53.17696163 722.43402266 58.8125 719.125 C67.42875809 714.07262008 76.07437247 709.0746173 84.75 704.125 C85.33298859 703.79230103 85.91597717 703.45960205 86.51663208 703.11682129 C91.27382091 700.4023631 96.03262101 697.69073475 100.79150391 694.97924805 C104.94508979 692.61248565 109.09796261 690.24447792 113.25 687.875 C113.83258575 687.54262329 114.41517151 687.21024658 115.01541138 686.86779785 C123.10173418 682.2524956 131.15537387 677.58398933 139.1875 672.875 C148.27795581 667.54637186 157.44575529 662.3708684 166.65185547 657.24511719 C174.75317578 652.72409435 182.77512259 648.07825996 190.77832031 643.38623047 C198.40799141 638.91721071 206.0699183 634.50663869 213.75 630.125 C214.33298859 629.79230103 214.91597717 629.45960205 215.51663208 629.11682129 C220.27382091 626.4023631 225.03262101 623.69073475 229.79150391 620.97924805 C233.94508979 618.61248565 238.09796261 616.24447792 242.25 613.875 C242.83258575 613.54262329 243.41517151 613.21024658 244.01541138 612.86779785 C252.10173418 608.2524956 260.15537387 603.58398933 268.1875 598.875 C276.24014623 594.15471334 284.34485615 589.54082457 292.5 585 C322.75797041 571.58991238 322.75797041 571.58991238 345.6875 550.94921875 C345.790625 550.20285156 345.89375 549.45648437 346 548.6875 C346.12375 547.94886719 346.2475 547.21023438 346.375 546.44921875 C345.80258851 542.7106562 343.70962249 540.46491724 341 538 C338.50726809 536.270574 335.88249374 534.88734946 333.1875 533.5 C331.5623627 532.63028845 329.93874111 531.75774051 328.31640625 530.8828125 C327.02114014 530.18720215 327.02114014 530.18720215 325.69970703 529.47753906 C320.94945722 526.87774598 316.29212067 524.1203651 311.625 521.375 C302.86286292 516.23932623 294.07158842 511.15785874 285.25 506.125 C284.66764587 505.79266357 284.08529175 505.46032715 283.48529053 505.11791992 C279.3244162 502.74371915 275.16235627 500.37160147 271 498 C266.24917808 495.29310624 261.49888166 492.58529654 256.75 489.875 C256.16641724 489.54195862 255.58283447 489.20891724 254.98156738 488.86578369 C245.97878977 483.72566113 237.01538309 478.52066225 228.06835938 473.28417969 C217.57148901 467.14888021 207.01104794 461.12569808 196.4478302 455.10571289 C190.13913406 451.51035643 183.83495119 447.90711425 177.53088379 444.3036499 C174.62881591 442.64487241 171.72650802 440.98651509 168.82421875 439.328125 C162.41210938 435.6640625 162.41210938 435.6640625 156 432 C156.62176033 428.55421959 157.49261618 425.36522538 158.671875 422.0703125 C165.23646752 403.32615008 171.01801353 384.02104627 171.23828125 364.00390625 C171.2480751 363.26160263 171.25786896 362.51929901 171.26795959 361.75450134 C171.8598309 305.16799467 153.41310565 255.53483585 113.875 214.625 C82.96453276 184.74488167 42.43301394 166.30412674 0 161 C0 107.87 0 54.74 0 0 Z " fill="#B90A21" transform="translate(562,248)"/>
<path d="M0 0 C1.08756592 0.61955566 2.17513184 1.23911133 3.2956543 1.87744141 C6.66301686 3.80130113 10.02064 5.74106957 13.375 7.6875 C14.37966309 8.27031738 15.38432617 8.85313477 16.41943359 9.45361328 C20.33067397 11.72698516 24.23847006 14.00608825 28.14111328 16.29418945 C35.85389598 20.81515157 43.60685463 25.2627196 51.375 29.6875 C60.17510525 34.70059333 68.94872513 39.7554294 77.6875 44.875 C85.37941084 49.380552 93.10516312 53.81771093 100.875 58.1875 C108.64483997 62.55729081 116.37049293 66.99460911 124.0625 71.5 C132.7217368 76.57078797 141.40937862 81.58936339 150.125 86.5625 C150.70780731 86.89510834 151.29061462 87.22771667 151.89108276 87.57040405 C156.05149804 89.94433235 160.21310748 92.31616277 164.375 94.6875 C169.12582197 97.39439379 173.87607177 100.102285 178.625 102.8125 C179.49788162 103.31056656 179.49788162 103.31056656 180.38839722 103.81869507 C189.50399836 109.02233654 198.57732976 114.2956725 207.6340332 119.60107422 C214.49164762 123.61028221 221.39021391 127.54116806 228.3125 131.4375 C231.12473252 133.02507749 233.93639263 134.61365975 236.74755859 136.203125 C238.44730924 137.1634004 240.14808904 138.12185738 241.85009766 139.078125 C265.33472141 152.31163994 282.60973228 169.32941693 290.375 195.6875 C292.52340526 203.80474949 292.64791311 211.68261212 292.60205078 220.04150391 C292.60148551 221.46168001 292.60180549 222.8818567 292.60293579 224.30203247 C292.60350578 228.12781679 292.59180936 231.95347376 292.57778788 235.77922869 C292.56522097 239.78838982 292.56410534 243.79755439 292.56173706 247.80673218 C292.55553971 255.38544407 292.5391527 262.96409775 292.51903808 270.54278409 C292.49662453 279.176459 292.48567197 287.8101368 292.47564721 296.44383359 C292.45478479 314.19175531 292.41964301 331.93962296 292.375 349.6875 C288.75361799 348.26957839 285.40936012 346.68595838 282.015625 344.78125 C280.47950562 343.92092163 280.47950562 343.92092163 278.91235352 343.04321289 C277.82752686 342.43082764 276.7427002 341.81844238 275.625 341.1875 C274.49827881 340.55384521 273.37155762 339.92019043 272.21069336 339.26733398 C265.41838435 335.43668325 258.6627754 331.55175832 251.95532227 327.57470703 C235.95089478 318.0879283 219.76767406 308.90175592 203.60952759 299.67990112 C189.76719055 291.77911554 175.96572899 283.80794868 162.16601562 275.83300781 C158.94431725 273.97147328 155.72228921 272.11051161 152.5 270.25 C151.43394531 269.63447266 150.36789062 269.01894531 149.26953125 268.38476562 C140.68504403 263.43296958 132.07919707 258.51925132 123.47027588 253.61013794 C114.43028292 248.45333392 105.42974679 243.23206231 96.44824219 237.97412109 C88.23584825 233.17338404 79.98238625 228.44609742 71.71875 223.734375 C63.25679246 218.90957465 54.80857068 214.06181361 46.375 209.1875 C36.80698608 203.65842488 27.22038586 198.16273586 17.62161255 192.68731689 C11.14373436 188.99184281 4.67128616 185.28751346 -1.78515625 181.5546875 C-2.36872894 181.2173761 -2.95230164 180.8800647 -3.55355835 180.53253174 C-6.31620147 178.93520432 -9.07775885 177.33603857 -11.83789062 175.734375 C-14.7613674 174.04213536 -17.69088543 172.36122014 -20.625 170.6875 C-21.62595703 170.11370605 -22.62691406 169.53991211 -23.65820312 168.94873047 C-25.11323242 168.13106201 -25.11323242 168.13106201 -26.59765625 167.296875 C-27.46011963 166.80928711 -28.32258301 166.32169922 -29.21118164 165.81933594 C-33.06233376 164.01353628 -35.43007394 163.96423689 -39.625 164.6875 C-43.06812714 166.8119827 -44.34117547 167.83602641 -45.625 171.6875 C-45.73101967 174.548911 -45.77985276 177.38658906 -45.78321838 180.24845886 C-45.79062535 181.57537474 -45.79062535 181.57537474 -45.79818195 182.929097 C-45.8135876 185.90479645 -45.82192588 188.88047428 -45.83032227 191.85620117 C-45.83989838 193.98469738 -45.8499083 196.11319168 -45.86032104 198.24168396 C-45.88740508 204.03056568 -45.9083957 209.81945559 -45.92832303 215.60836577 C-45.95016101 221.65423439 -45.97756039 227.7000777 -46.00437927 233.7459259 C-46.05433578 245.19933598 -46.09926363 256.65276009 -46.14240164 268.10619766 C-46.19174875 281.14352079 -46.24667623 294.18081853 -46.30208123 307.21811712 C-46.41594668 334.04122106 -46.52277578 360.86434935 -46.625 387.6875 C-47.78215012 387.89702301 -47.78215012 387.89702301 -48.962677 388.11077881 C-52.49913909 388.75297654 -56.03472327 389.39988979 -59.5703125 390.046875 C-60.78372314 390.26649902 -61.99713379 390.48612305 -63.24731445 390.71240234 C-103.10782187 398.028486 -137.18540876 418.20181542 -165.625 446.6875 C-166.29660156 447.31269531 -166.96820313 447.93789063 -167.66015625 448.58203125 C-200.39862081 479.5542588 -218.24258811 528.84588096 -219.87109375 573.05859375 C-220.43182689 600.22271997 -215.53666484 626.06530065 -206.30175781 651.55712891 C-205.55383811 653.91151106 -205.0699733 656.25926262 -204.625 658.6875 C-217.94021614 666.38609154 -231.26604992 674.06504575 -244.625 681.6875 C-254.71092935 687.44250712 -264.77763479 693.22995856 -274.83154297 699.04077148 C-282.19960689 703.29629999 -289.58348914 707.52346376 -296.97506714 711.73794556 C-318.30962402 723.75871291 -318.30962402 723.75871291 -339.29711914 736.36206055 C-341.625 737.6875 -341.625 737.6875 -343.625 737.6875 C-343.69350362 687.20821848 -343.75718216 636.7289337 -343.79437256 586.24961853 C-343.79492479 585.50198513 -343.79547702 584.75435173 -343.79604598 583.98406277 C-343.80801883 567.73425669 -343.81909939 551.48445012 -343.82926132 535.23464281 C-343.83425047 527.26523377 -343.83943671 519.29582486 -343.84472656 511.32641602 C-343.8452496 510.53338261 -343.84577263 509.7403492 -343.84631152 508.92328447 C-343.86334353 483.23912923 -343.89337876 457.55500928 -343.93018888 431.8708754 C-343.96796104 405.46740242 -343.99255146 379.06394896 -344.00065996 352.66044942 C-344.00181251 348.92737982 -344.00311505 345.19431029 -344.00450897 341.46124077 C-344.00477866 340.7265509 -344.00504836 339.99186104 -344.00532622 339.23490785 C-344.01004501 327.42935608 -344.02857536 315.62386485 -344.05232814 303.81833773 C-344.07593639 291.93711094 -344.08485713 280.05594389 -344.07900551 268.17469449 C-344.07644674 261.74229755 -344.08033477 255.31007762 -344.1018219 248.87771225 C-344.12137633 242.98066477 -344.12221232 237.08391229 -344.10859558 231.18685084 C-344.10691418 229.06138824 -344.11191246 226.93590676 -344.12453273 224.81048096 C-344.21016525 209.48917985 -343.42890954 194.06606308 -335.875 180.3125 C-335.35848877 179.33192627 -335.35848877 179.33192627 -334.83154297 178.33154297 C-322.44220255 155.39520607 -303.17545413 144.56124396 -281.18359375 132.35546875 C-275.01235666 128.92054347 -268.90368676 125.38705416 -262.8125 121.8125 C-254.15638463 116.73595973 -245.46785345 111.71961208 -236.75 106.75 C-227.69410492 101.58695545 -218.65030621 96.40392356 -209.625 91.1875 C-200.59969154 85.97107514 -191.55572197 80.78835025 -182.5 75.625 C-173.84804049 70.69153214 -165.22027875 65.71921489 -156.625 60.6875 C-148.06950589 55.68004896 -139.48475755 50.72595141 -130.875 45.8125 C-130.2917395 45.47961975 -129.708479 45.1467395 -129.10754395 44.80377197 C-124.35063102 42.08949484 -119.59209282 39.37807169 -114.83349609 36.66674805 C-101.98624511 29.34623239 -89.14527312 22.01689272 -76.375 14.5625 C-75.41029785 14.00054932 -74.4455957 13.43859863 -73.45166016 12.85961914 C-68.3322247 9.87249507 -63.23144242 6.85733363 -58.1484375 3.80859375 C-57.07754883 3.17131348 -56.00666016 2.5340332 -54.90332031 1.87744141 C-52.86865694 0.6660322 -50.83894793 -0.55375594 -48.81542969 -1.78369141 C-30.83094615 -12.45239982 -17.60958987 -10.20186056 0 0 Z " fill="#BA0A21" transform="translate(565.625,21.3125)"/>
<path d="M0 0 C2.53785916 2.23573307 5.00458206 4.53056964 7.4609375 6.85546875 C8.40710938 7.72558594 9.35328125 8.59570312 10.328125 9.4921875 C31.40174046 29.31138006 44.4859443 56.08889747 51.4609375 83.85546875 C51.71085449 84.83265869 51.71085449 84.83265869 51.96582031 85.82958984 C57.01890442 106.65394577 56.58670674 132.1051844 51.4609375 152.85546875 C51.29464844 153.57621582 51.12835937 154.29696289 50.95703125 155.03955078 C48.17454568 166.95013486 43.81727911 177.87981269 38.4609375 188.85546875 C37.96722656 189.87253906 37.47351563 190.88960937 36.96484375 191.9375 C18.60845888 227.45424467 -14.55191422 253.7974101 -52.20898438 266.1328125 C-58.57101493 268.10594855 -64.99981468 269.60500675 -71.5390625 270.85546875 C-72.68761719 271.08105469 -73.83617187 271.30664062 -75.01953125 271.5390625 C-114.97913058 278.0861155 -157.07028879 267.97984441 -189.90234375 244.484375 C-223.31585009 219.84532995 -246.01576481 184.06018365 -252.5390625 142.85546875 C-252.81556641 141.15390625 -252.81556641 141.15390625 -253.09765625 139.41796875 C-255.22258494 121.61127991 -255.02886054 101.22973663 -250.5390625 83.85546875 C-250.24104736 82.67718506 -250.24104736 82.67718506 -249.93701172 81.47509766 C-239.44168283 41.1211477 -214.73531481 6.57616057 -178.61279297 -14.74487305 C-121.93323332 -47.14400468 -50.24446603 -42.437249 0 0 Z " fill="#FEC62F" transform="translate(639.5390625,481.14453125)"/>
</svg>
