<?xml version="1.0" encoding="UTF-8"?>
<svg version="1.1" xmlns="http://www.w3.org/2000/svg" width="368" height="417">
<path d="M0 0 C7.75068386 7.11559438 10.3831004 19.83447392 11.25390625 29.94921875 C11.96460534 48.58787551 4.80760675 64.32081206 -7.6953125 77.83203125 C-13.6977372 83.57874728 -21.16839261 87.40976754 -28.34326172 91.48681641 C-31.22667749 93.12910743 -34.10033859 94.78759646 -36.97265625 96.44921875 C-42.51309203 99.65402227 -48.05833893 102.85038499 -53.60498047 106.04443359 C-59.0716998 109.19332054 -64.53574887 112.34683264 -70 115.5 C-72.16665311 116.7500235 -74.33331979 118.00002347 -76.5 119.25 C-77.5725 119.86875 -78.645 120.4875 -79.75 121.125 C-115.5 141.75 -115.5 141.75 -118.75219727 143.6262207 C-120.91159395 144.8720577 -123.07093669 146.11798818 -125.23022461 147.36401367 C-131.88839831 151.20594423 -138.5485867 155.04435213 -145.21044922 158.87988281 C-148.4905165 160.77099808 -151.76687092 162.66842516 -155.04296875 164.56640625 C-158.67474487 166.66834503 -162.31856774 168.74243638 -165.98828125 170.77734375 C-184.22294188 180.97525386 -196.40284096 193.86399953 -203.125 213.84375 C-204.91593403 220.3039049 -205.26045812 226.67536805 -205.4296875 233.34179688 C-205.56141111 236.25892593 -205.71010396 238.5153012 -207.2265625 241.05078125 C-209 242 -209 242 -211.46875 242.0078125 C-214.9050075 240.63967294 -215.6627973 239.07340288 -217.5 235.875 C-217.82331299 235.31876953 -218.14662598 234.76253906 -218.47973633 234.18945312 C-219.2279383 232.89463904 -219.96794088 231.59506767 -220.70166016 230.29199219 C-222.18597995 227.67168489 -223.70804797 225.07490998 -225.23046875 222.4765625 C-237.52558931 201.32888531 -245.93264242 182.26749422 -239.96484375 157.40625 C-234.47362944 138.02026264 -222.60854606 123.44002453 -205.11132812 113.55078125 C-204.06396484 112.97714844 -203.01660156 112.40351563 -201.9375 111.8125 C-200.2208972 110.8473418 -198.50430714 109.8821601 -196.78848267 108.9156189 C-195.02526779 107.92461447 -193.25876819 106.93967907 -191.49169922 105.95556641 C-185.9585166 102.86643483 -180.48303338 99.67697199 -175 96.5 C-172.83359106 95.24955339 -170.66692378 93.99955423 -168.5 92.75 C-167.4275 92.13125 -166.355 91.5125 -165.25 90.875 C-77.5 40.25 -77.5 40.25 -74.24951172 38.37475586 C-72.08442929 37.12564482 -69.91939018 35.87645871 -67.75439453 34.62719727 C-62.31384294 31.48797691 -56.87252784 28.35009437 -51.4296875 25.21484375 C-49.80329346 24.27717163 -49.80329346 24.27717163 -48.14404297 23.32055664 C-45.98022141 22.07413725 -43.81519784 20.82980203 -41.64892578 19.58764648 C-36.16372166 16.43555146 -30.71603246 13.23572289 -25.3125 9.9453125 C-23.69045654 8.96800171 -23.69045654 8.96800171 -22.03564453 7.97094727 C-19.98609039 6.73339399 -17.9447761 5.48204949 -15.91357422 4.21459961 C-10.38059217 0.89162218 -6.49297561 -1.25739243 0 0 Z " fill="#1E489D" transform="translate(288,21)"/>
<path d="M0 0 C6.74572394 4.60683586 9.24057693 13.66267609 11.3125 21.25 C14.53015897 38.55663174 10.52653632 55.29855507 1 70 C-7.35676487 81.74364755 -20.86011287 88.73066388 -33.1875 95.625 C-34.40553022 96.31281551 -35.62313166 97.00139083 -36.84033203 97.69067383 C-39.33463881 99.10293485 -41.83021696 100.51290613 -44.32666016 101.92138672 C-53.22359189 106.94815169 -62.06220235 112.07764501 -70.90136719 117.20507812 C-72.96794508 118.40216926 -75.03631047 119.59617987 -77.10644531 120.78710938 C-98.35800519 133.01812531 -115.12609995 144.88027086 -122.875 169.25 C-124.30508704 175.03968572 -124.47362344 180.95505357 -124.62255859 186.89550781 C-124.74003095 190.75293349 -124.81160071 192.71740106 -127 196 C-129.75 196.75 -129.75 196.75 -133 196 C-134.34643555 194.43920898 -134.34643555 194.43920898 -135.69921875 192.30859375 C-136.21887207 191.49084473 -136.73852539 190.6730957 -137.27392578 189.83056641 C-140.24335028 184.96104623 -143.16856677 180.07010095 -146.01391602 175.12719727 C-146.70954883 173.92332329 -147.4103571 172.72242413 -148.11645508 171.5246582 C-159.18092107 152.75444408 -164.72601568 132.75897459 -159.4375 111.0625 C-152.24129942 87.83839811 -136.37505298 74.75501946 -115.875 63.375 C-114.64935812 62.68594434 -113.4242721 61.99589915 -112.19970703 61.30493164 C-109.69202857 59.89036105 -107.18254448 58.47907834 -104.671875 57.06982422 C-99.04610749 53.90569953 -93.46136245 50.67052211 -87.875 47.4375 C-85.72923716 46.19779464 -83.58340383 44.95821129 -81.4375 43.71875 C-80.37789063 43.10644531 -79.31828125 42.49414062 -78.2265625 41.86328125 C-74.96475993 39.9796495 -71.70138156 38.09877679 -68.4375 36.21875 C-58.81482133 30.67504054 -49.19640579 25.12462062 -39.60546875 19.52612305 C-37.59985195 18.35548263 -35.59336108 17.18633825 -33.5859375 16.01879883 C-28.86633998 13.27162346 -24.16278111 10.50300825 -19.48828125 7.6796875 C-18.62323975 7.1630957 -17.75819824 6.64650391 -16.86694336 6.11425781 C-15.25843944 5.1529691 -13.65587222 4.18164281 -12.06079102 3.19824219 C-7.91261864 0.73472331 -4.97650283 -0.75200487 0 0 Z " fill="#923687" transform="translate(260,157)"/>
<path d="M0 0 C7.05696786 6.04512321 11.46026909 14.34455856 12.3125 23.5859375 C12.72238234 33.551202 10.18642679 42.31755931 3.8125 50.09375 C-3.22353218 57.25542562 -11.52517926 60.04377324 -21.3125 61.3125 C-32.31786233 59.98426662 -41.62030094 56.34960662 -48.75 47.66796875 C-55.08592052 38.72761936 -55.85545029 29.62649283 -54.9375 18.875 C-54.0753191 15.49975774 -52.79290665 12.81128217 -50.9375 9.875 C-50.51339844 9.17890625 -50.08929688 8.4828125 -49.65234375 7.765625 C-44.57148546 0.23633082 -36.9466777 -4.81865702 -28.0625 -6.75 C-18.01746734 -7.95540392 -8.34196303 -5.97064359 0 0 Z " fill="#D01776" transform="translate(206.9375,325.125)"/>
</svg>
