<?xml version="1.0" encoding="utf-8"?>
<svg version="1.2" baseProfile="tiny" id="Layer_1" xmlns="http://www.w3.org/2000/svg" xmlns:xlink="http://www.w3.org/1999/xlink"
	 x="0px" y="0px" viewBox="0 0 210 360" overflow="visible" xml:space="preserve">
<g>
	<path d="M76.84,57.035c-22.625,14.35-38.3625,45.7625-38.3625,82.1c0,49.8625,29.6125,90.425,66,90.425s66-40.5625,66-90.425
		c0-36.3375-15.725-67.7375-38.35-82.1l20.1-24.2625c0.3125-0.375,0.275-0.9375-0.0875-1.275c-5.85-5.3625-12.825-9.65-21.3-13.1
		c-2.45-1-5.1125-1.875-8.35-2.775c-15.7625-4.3-17.0375-13.5875-17.075-13.975c0-0.025-0.0125-0.0375-0.0125-0.0625
		c-0.0125-0.0375-0.0125-0.075-0.025-0.1125c-0.0125-0.025-0.025-0.05-0.025-0.075C105.34,1.36,105.3276,1.335,105.315,1.31
		c-0.0125-0.025-0.0375-0.05-0.05-0.075c-0.0125-0.025-0.025-0.05-0.05-0.0625c-0.025-0.025-0.05-0.05-0.075-0.075
		c-0.0125-0.0125-0.025-0.0375-0.05-0.05c-0.0375-0.025-0.075-0.05-0.1125-0.075c-0.0125-0.0125-0.025-0.0125-0.0375-0.025
		c-0.1625-0.0875-0.35-0.1375-0.55-0.1125c-0.3,0.0375-0.5625,0.2125-0.7,0.4625c0,0,0,0.0125-0.0125,0.0125
		c-0.025,0.0375-0.05,0.0875-0.0625,0.1375c0,0.0125-0.0125,0.025-0.0125,0.0375c-0.0125,0.0375-0.025,0.0875-0.025,0.125
		c0,0.0125-0.0125,0.0375-0.0125,0.05c-0.05,0.3875-1.325,9.675-17.0875,13.9875c-3.25,0.8875-5.9,1.775-8.35,2.775
		c-8.475,3.45-15.4375,7.7375-21.3,13.1c-0.3625,0.3375-0.4,0.9-0.0875,1.275L76.84,57.035z"/>
	<path fill="#FFFFFF" d="M168.6275,139.135c0,48.8375-28.775,88.575-64.15,88.575s-64.15-39.7375-64.15-88.575
		s28.775-88.575,64.15-88.575C139.8526,50.56,168.6275,90.2975,168.6275,139.135"/>
	<path fill="#ED1C24" d="M77.0275,162.3225c0.5,0.8-0.5,1.7-1.2375,1.1c-7.3-5.7875-11.975-14.7375-11.975-24.7625
		c0-12.8125,7.6375-23.85,18.6125-28.8125c0.8875-0.4,1.6375,0.775,0.9,1.4c-7.3875,6.375-12.2375,17.1-12.2375,29.2625
		C71.0775,148.735,73.3025,156.31,77.0275,162.3225 M137.89,140.51c0-12.1625-4.85-22.8875-12.2375-29.2625
		c-0.7375-0.6375,0.0125-1.8,0.9-1.4c10.975,4.9625,18.6125,16,18.6125,28.8125c0,10.0375-4.675,18.975-11.975,24.7625
		c-0.7375,0.5875-1.7375-0.3-1.2375-1.1C135.6651,156.31,137.89,148.735,137.89,140.51 M104.4776,105.01
		c-1.075,1.375-2.6,2.2375-4.3,2.2375c-1.1375,0-2.25-0.4-3.15-1.1c-0.9625-0.725-1.6875-1.75-2.1375-2.8625
		c-0.3625-0.875-0.55-1.825-0.5875-2.775c-0.0125-0.4,0.5375-0.525,0.7-0.1625c0.875,1.875,2.6875,3.1625,4.7875,3.1625
		c1.7875,0,3.3625-0.9375,4.3375-2.3625c0.0875-0.125,0.2125-0.1875,0.35-0.1875s0.2625,0.0625,0.35,0.1875
		c0.975,1.4375,2.55,2.3625,4.3375,2.3625c2.1,0,3.9125-1.2875,4.7875-3.1625c0.175-0.3625,0.7125-0.2375,0.7,0.1625
		c-0.0375,0.95-0.225,1.9-0.5875,2.775c-0.45,1.1125-1.175,2.125-2.1375,2.8625c-0.9,0.6875-2.0125,1.1-3.15,1.1
		C107.0775,107.235,105.5525,106.3725,104.4776,105.01 M124.0775,172.5225c-3.7375,1.1875-7.725,1.7625-11.85,1.6125
		c-1.275-0.05-2.55-0.1625-3.7875-0.35c-0.0625-0.0125-0.1375,0.025-0.175,0.075l-3.025,4.75c-0.175,0.2625-0.45,0.4-0.725,0.4
		s-0.5625-0.1375-0.725-0.4l-3.025-4.75c-0.0375-0.0625-0.1-0.0875-0.175-0.075c-1.2375,0.175-2.5,0.3-3.7875,0.35
		c-4.125,0.15-8.125-0.425-11.85-1.6125c-0.4-0.125-0.275-0.725,0.1375-0.6875c0.1625,0.0125,0.3,0.025,0.425,0.0375
		c4.0375,0.2625,8-0.225,11.7625-1.3625c0.15-0.05,0.1625-0.25,0.025-0.325c-11.9875-6.25-20-19.2125-19.4875-33.8875
		c0.35-9.7375,4.3875-18.4625,10.7-24.7875c0.475-0.4875,1.25,0.1125,0.925,0.7c-4.175,7.45-5.975,16.5625-4.5375,26.0125
		c1.6625,10.8625,7.3,20.075,15.025,26.1c0.1125,0.0875,0.2875,0,0.2875-0.1375l-1-53.1875c0-0.2625,0.1625-0.4875,0.4-0.5625
		c1.8375-0.6,3.3-1.825,4.4625-3.1875c0.1125-0.1375,0.275-0.2,0.4375-0.2s0.325,0.0625,0.4375,0.2
		c1.175,1.35,2.6375,2.5875,4.4625,3.1875c0.25,0.075,0.4125,0.3125,0.4,0.5625l-1,53.1875c0,0.15,0.1625,0.2375,0.2875,0.1375
		c7.725-6.0375,13.3625-15.25,15.025-26.1c1.45-9.45-0.3625-18.5625-4.5375-26.0125c-0.3375-0.5875,0.4375-1.1875,0.925-0.7
		c6.3125,6.325,10.35,15.0375,10.7,24.7875c0.525,14.675-7.4875,27.6375-19.4875,33.8875c-0.1375,0.075-0.125,0.275,0.025,0.325
		c3.7625,1.125,7.725,1.625,11.7625,1.3625c0.1125-0.0125,0.2625-0.025,0.425-0.0375
		C124.3526,171.7975,124.4776,172.3975,124.0775,172.5225"/>
	<path d="M105.1651,247.31h-1.3375c-1.0375-0.05-2.15,0.225-3.1625,0.6c-1.0375-1.35-2.175-2.6875-3.425-4
		c0.6-0.65,2.475-2.1375,7.2375-2.1375c4.7375,0,6.6375,1.4875,7.2375,2.1375c-1.2375,1.3125-2.375,2.65-3.4125,3.9875
		C107.2901,247.5225,106.19,247.26,105.1651,247.31 M201.6275,128.535c1.025-1.45,1.975-3,2.8375-4.5875
		c0.425-0.775,0.875-1.7,0.85-2.725c-0.0375-1.4375-0.925-2.4625-1.7125-3.3625c-0.25-0.275-0.475-0.5375-0.675-0.8125
		c-0.9875-1.3125-1.4125-3.2-1.1125-4.925c0.05-0.275,0.1125-0.5375,0.175-0.8c0.15-0.6375,0.3-1.3,0.2875-2.0125
		c-0.0375-1.3-0.85-2.6375-2.15-2.65c-0.5125,0-0.9375,0.2125-1.2625,0.4c-0.625,0.3625-1.1875,0.825-1.725,1.2625
		c-0.4,0.325-0.775,0.6375-1.1625,0.9c-0.775,0.525-1.325,0.7375-1.8125,0.7c-0.4-0.6125-0.95-1.1-1.45-1.5375
		c-0.4125-0.3625-0.8-0.7125-1.1-1.1c-0.375-0.4875-0.625-1.0875-0.9-1.7375c-0.15-0.3375-0.3-0.6875-0.475-1.025
		c-0.0625-0.825,0.1875-2.1125,0.55-3.05c0.25-0.625,0.6125-1.2125,1-1.8375c0.225-0.375,0.475-0.75,0.6875-1.15
		c0.7375-1.3625,1.175-2.8375,1.5875-4.2625c0.5625-1.9375,1.075-4.15-0.125-5.925c-0.175-0.25-0.3625-0.475-0.55-0.6875
		c-0.2625-0.3-0.5125-0.5875-0.6125-0.8875c-0.15-0.4375-0.0125-0.9875,0.1375-1.6125c0.375-1.5875,0.6625-3.2125,0.85-4.8375
		c0.0875-0.8125,0.1625-1.75-0.2625-2.5875c-0.5875-1.175-1.8-1.6125-2.8625-2c-0.3125-0.1125-0.625-0.225-0.925-0.3625
		c-1.375-0.625-2.45-1.925-2.8125-3.3875c-0.0625-0.225-0.1-0.4625-0.1375-0.7c-0.1-0.575-0.2125-1.175-0.5125-1.7625
		c-0.525-1.0125-1.7875-1.775-2.9125-1.2625c-0.4375,0.2-0.7375,0.5375-0.95,0.8125c-0.4375,0.55-0.7625,1.15-1.0875,1.725
		c-0.2375,0.425-0.4625,0.825-0.725,1.2c-0.45,0.6625-0.975,1.125-1.5125,1.3625c-0.6-0.325-1.275-0.475-1.9-0.625
		c-0.5125-0.1125-1-0.225-1.4125-0.4125c-0.5125-0.225-0.975-0.6-1.4625-1c-0.3375-0.275-0.6875-0.55-1.0625-0.8
		c-0.025-0.0125-0.05-0.025-0.0625-0.0375c0.025-0.6375,0.1125-1.225,0.1875-1.575c0.15-0.6625,0.425-1.2875,0.7125-1.9625
		c0.175-0.4,0.35-0.8125,0.5125-1.2375c0.525-1.4625,0.7375-2.975,0.9375-4.45c0.275-2,0.4375-4.2625-1.0125-5.8375
		c-0.2125-0.225-0.425-0.4125-0.6375-0.6c-0.3-0.2625-0.6-0.5-0.7375-0.7875c-0.2125-0.4125-0.1625-0.975-0.1125-1.6125
		c0.1375-1.625,0.175-3.275,0.125-4.9125c-0.025-0.8125-0.1125-1.75-0.65-2.525c-0.7625-1.0625-2.0125-1.325-3.125-1.55
		c-0.325-0.0625-0.65-0.1375-0.9625-0.225c-1.45-0.4125-2.7125-1.5375-3.2875-2.925c-0.0875-0.225-0.175-0.45-0.25-0.675
		c-0.1875-0.5625-0.3875-1.1375-0.775-1.6625c-0.6625-0.9125-2.025-1.4875-3.0625-0.8125c-0.4,0.2625-0.65,0.6375-0.8125,0.9375
		c-0.35,0.6125-0.5875,1.25-0.825,1.8625c-0.175,0.4625-0.3375,0.8875-0.5375,1.3c-0.35,0.7125-0.8,1.2625-1.2875,1.575
		c-0.6375-0.225-1.325-0.275-1.975-0.325c-0.525-0.0375-1.025-0.075-1.4625-0.2c-0.5375-0.15-1.05-0.45-1.6-0.775
		c-0.375-0.225-0.7625-0.45-1.175-0.6375c-1.1375-0.5125-2.825-0.7125-3.8625,0.4c-1.4125,1.5125-0.3,3.575,0.5125,5.075
		c0.0875,0.175,0.1875,0.3375,0.275,0.5c0.6125,1.175,0.8875,2.4875,0.8,3.8c-0.05-0.025-0.1125-0.05-0.1625-0.0625
		c-2.4125-0.825-4.925-0.875-7.3625-0.925c-0.9875-0.025-1.65,0.4375-1.7125,1.1625c-0.1375,1.4125,0.5125,2.775,1.9625,4.1625
		c1.4875,1.425,2.65,3.2,3.375,5.125c0.2125,0.5625,0.3875,1.1625,0.575,1.7375c0.425,1.3875,0.8625,2.8125,1.75,4.0625
		c1.2,1.675,2.975,2.6625,4.6875,3.625c1.35,0.75,2.625,1.4625,3.625,2.4875c0.1625,0.1625,0.325,0.3375,0.475,0.5125
		c0.4,0.45,0.825,0.9125,1.375,1.2875c0.9875,0.6625,2.125,0.825,3.2125,0.9875c0.4375,0.0625,0.85,0.125,1.2375,0.2125
		c4.0125,0.9,6.825,2.2375,7.575,3.6c-0.0125,0.4125-0.0625,0.825-0.15,1.2375c-0.05-0.025-0.1-0.0625-0.15-0.0875
		c-2.2625-1.175-4.75-1.6125-7.15-2.0125c-0.9625-0.1625-1.6875,0.1875-1.8625,0.8875c-0.3375,1.375,0.0875,2.825,1.3125,4.4125
		c1.2625,1.625,2.15,3.55,2.575,5.575c0.125,0.5875,0.2125,1.2,0.3,1.8c0.2125,1.4375,0.425,2.9125,1.125,4.275
		c0.9375,1.8375,2.5375,3.075,4.0875,4.275c1.225,0.95,2.375,1.85,3.2125,3c0.1375,0.1875,0.2625,0.3875,0.4,0.575
		c0.3375,0.5125,0.675,1.0375,1.175,1.475c0.875,0.8,1.975,1.1375,3.0375,1.45c0.425,0.125,0.8125,0.25,1.2,0.4
		c2.775,1.0875,4.375,2.45,4.875,4.1625c-0.2375,0.7-0.5625,1.375-0.95,1.975c-0.0125-0.0125-0.025-0.0375-0.0375-0.05
		c-1.5375-2.2875-3.6-3.9125-5.6-5.475c-0.275-0.2125-0.8125-0.55-1.3875-0.475c-0.325,0.05-0.6125,0.225-0.8125,0.5
		c-0.875,1.2375-1.1,2.8875-0.6875,5.0625c0.4375,2.3,0.425,4.725-0.05,7.025c-0.1375,0.6625-0.325,1.35-0.5,2.0125
		c-0.425,1.5625-0.85,3.1875-0.8125,4.8875c0.0625,2.3,0.975,4.3375,1.85,6.3c0.7,1.5625,1.3625,3.05,1.6375,4.65
		c0.0375,0.2625,0.075,0.525,0.1125,0.7875c0.0875,0.675,0.175,1.375,0.425,2.05c0.45,1.2375,1.2875,2.0875,2.1125,2.925
		c0.325,0.325,0.6375,0.6375,0.9125,0.975c1.0375,1.2375,1.55,2.25,1.6875,3.5125c-0.8875-1.175-1.8625-2.25-2.8375-3.3
		c-0.2875-0.3125-0.7375-0.675-1.3-0.6875c-0.3375,0-0.6375,0.125-0.875,0.3625c-1.0625,1.075-1.55,2.675-1.475,4.9
		c0.075,2.3375-0.325,4.7375-1.1625,6.925c-0.2375,0.6375-0.5375,1.2875-0.8125,1.9c-0.6625,1.4875-1.35,3.0125-1.575,4.7
		c-0.3,2.2875,0.275,4.4375,0.8375,6.5125c0.45,1.65,0.8625,3.225,0.875,4.85c0,0.2625-0.0125,0.5375-0.0125,0.8
		c-0.025,0.675-0.05,1.3875,0.0875,2.0875c0.25,1.2875,0.95,2.275,1.625,3.225c0.275,0.375,0.525,0.7375,0.75,1.1125
		c1.1375,1.9,1.425,5,0.7375,7.525c-0.0125,0-0.025,0.0125-0.025,0.0125c0-0.025,0-0.0375,0-0.0625
		c-0.075-2.75-0.9625-5.225-1.8125-7.6125c-0.1125-0.325-0.3875-0.9-0.925-1.1375c-0.3-0.1375-0.6375-0.1375-0.95-0.0125
		c-1.4,0.575-2.475,1.85-3.275,3.925c-0.85,2.175-2.1625,4.225-3.8,5.9125c-0.475,0.4875-0.9875,0.975-1.5,1.4375
		c-1.1875,1.1-2.425,2.2375-3.3,3.7125c-1.175,1.975-1.4875,4.1875-1.7875,6.3125c-0.2375,1.7-0.4625,3.3-1.1,4.8
		c-0.1,0.25-0.2125,0.4875-0.325,0.725c-0.2875,0.6125-0.5875,1.25-0.7375,1.9625c-0.275,1.2875-0.025,2.4625,0.225,3.6
		c0.1,0.45,0.1875,0.875,0.25,1.3125c0.3125,2.275-1.3875,5.6375-3.2375,7.8h-0.0125c0.0125-0.025,0.0125-0.0375,0.025-0.0625
		c0.8375-2.625,0.8125-5.25,0.8-7.7875c0-0.3375-0.075-0.975-0.5-1.375c-0.2375-0.225-0.55-0.3375-0.8875-0.325
		c-1.5125,0.075-2.95,0.9375-4.3875,2.6125c-1.525,1.775-3.4375,3.275-5.5375,4.325c-0.6125,0.3-1.2625,0.5875-1.8875,0.8625
		c-1.4875,0.65-3.025,1.3125-4.3375,2.4125c-1.7625,1.475-2.7875,3.4625-3.775,5.375c-0.7875,1.525-1.5375,2.9625-2.625,4.175
		c-0.175,0.2-0.3625,0.3875-0.55,0.575c-0.475,0.4875-0.9625,0.9875-1.35,1.6c-0.6875,1.1125-0.8375,2.3125-0.975,3.475
		c-0.0625,0.4625-0.1125,0.9-0.2,1.325c-0.4125,2.025-0.9125,3.325-2.3125,4.425v-3.7c0-1.8625-1.5125-3.375-3.375-3.375h-7.1875
		c-1.5625,0-2.025,0-4.5375-0.5125c-0.975-0.2-1.725-0.45-2.4375-0.6875c-1.1625-0.3875-2.175-0.7125-3.5-0.6625
		c-1.3875-0.05-2.4,0.275-3.55,0.6625c-0.725,0.2375-1.475,0.4875-2.45,0.6875c-2.5,0.5125-2.975,0.5125-4.5375,0.5125h-7.2748
		c-1.8625,0-3.375,1.5125-3.375,3.375v6.0125c-0.4-0.2625-0.775-0.5375-1.15-0.8c0.7125-5.675-1.725-12.2875-6.3625-17.025
		c-2.125-2.175-4.7375-3.9-7.2625-5.5625c-3.7375-2.4625-7.275-4.8-9.25-8.425c-0.175-0.325-0.5375-0.4875-0.9-0.4
		c-0.35,0.075-0.6125,0.3875-0.6375,0.75c-0.0125,0.15-0.1875,3.6625,0.0875,5.475c0.275,1.825,0.8875,3.5,1.5375,5.1125
		c-1.475-0.3875-2.9625-0.8-4.375-1.35c-1.275-0.4875-2.4125-1.0875-3.4875-1.7875c2.975-5.225,3.1625-11.875,0.5125-17.825
		c-1.2375-2.775-3.0875-5.3-4.8875-7.7375c-2.65-3.6125-5.1625-7.025-5.75-11.1125c-0.05-0.3625-0.3375-0.6375-0.7-0.6875
		c-0.3625-0.05-0.7125,0.15-0.85,0.4875c-0.0625,0.1375-1.45,3.375-1.825,5.1625c-0.375,1.8-0.3875,3.5875-0.325,5.325
		c-1.25-0.875-2.5-1.775-3.6375-2.775c-0.9875-0.875-1.825-1.7875-2.5625-2.775c4.2875-3.9375,6.55-9.9625,6.05-16.2625
		c-0.2375-3.0375-1.1375-6.025-2.0125-8.925c-1.2875-4.2875-2.5125-8.35-1.7-12.4c0.075-0.3625-0.1-0.7125-0.425-0.8875
		c-0.325-0.1625-0.7125-0.1-0.9625,0.175c-0.1,0.1125-2.5,2.7-3.4375,4.25c-0.9625,1.575-1.5625,3.25-2.0875,4.9125
		c-0.875-1.2375-1.7625-2.5125-2.5-3.8375c-0.6625-1.1875-1.1625-2.375-1.525-3.5875c5.2375-2.4,9.575-7.875,11.1125-14.15
		c0.725-2.95,0.8125-6.0875,0.8875-9.1c0.125-4.475,0.2375-8.7125,2.275-12.3c0.175-0.3125,0.125-0.7125-0.125-0.975
		s-0.65-0.3125-0.975-0.1375c-0.125,0.075-3.2125,1.775-4.6,2.9625c-1.4,1.1875-2.5,2.6-3.525,4.0125
		c-0.45-1.45-0.8875-2.9375-1.1625-4.425c-0.2375-1.225-0.325-2.4125-0.325-3.5875c5.675-1.275,10.625-5.375,13.3375-11.075
		c1.3-2.75,2.0125-5.7875,2.7125-8.7375c1.025-4.3625,1.9875-8.4875,4.7125-11.5875c0.2375-0.275,0.2625-0.675,0.075-0.975
		c-0.2-0.3-0.575-0.4375-0.925-0.3375c-0.1375,0.05-3.5,1.0875-5.1,1.975c-1.6125,0.8875-2.975,2.0375-4.2625,3.2125
		c-0.15-1.5125-0.275-3.0625-0.25-4.5625c0.025-1.3875,0.1875-2.7,0.4875-3.9625c0.7125,0.0875,1.4375,0.1375,2.1625,0.1375
		c4.6,0,9.2375-1.8375,12.9125-5.2125c2.1125-1.9375,3.825-4.3625,5.4625-6.6875c2.4375-3.45,4.725-6.7125,8.2-8.4625
		c0.325-0.1625,0.5-0.525,0.4375-0.8875c-0.075-0.3625-0.3625-0.625-0.725-0.65c-0.1375-0.0125-3.4625-0.2875-5.175-0.0875
		c-1.7,0.2-3.275,0.7125-4.8,1.275c0.4-1.35,0.825-2.7125,1.3625-3.9875c0.7-1.6625,1.5875-3.1125,2.6875-4.4125
		c0.1-0.1125,0.2125-0.25,0.3375-0.4c0.6375-0.775,1.8375-2.225,2.675-2.675c0.3875-0.2,0.5625-0.65,0.425-1.0625
		s-0.55-0.6625-0.975-0.5875c-4.75,0.775-9.4875,2.6-13.55,5.125c0.7875-3.325,0.5875-6.4125-0.625-8.725
		c-0.4-0.7625-1.4125-2.025-1.525-2.1625c-0.2-0.25-0.5375-0.3625-0.85-0.2875s-0.55,0.3375-0.6125,0.65
		c-0.6375,3.5-2.3625,6.825-4.875,9.35c-0.85,0.85-1.8,1.65-2.725,2.4125c-0.95,0.7875-1.9375,1.6-2.8375,2.5125
		c-4.4125,4.4375-6.825,14.4625-3.2375,23.15c-1.6375,1.6-3.1375,3.3375-4.45,5.15c-0.525-3.625-1.95-6.6125-4.075-8.425
		c-0.6875-0.5875-2.175-1.425-2.35-1.5125c-0.2875-0.1625-0.6375-0.1375-0.8875,0.05c-0.2625,0.1875-0.3875,0.5125-0.325,0.8375
		c0.7625,3.7,0.3875,7.6625-1.075,11.15c-0.4875,1.175-1.125,2.3375-1.725,3.45c-0.625,1.15-1.2625,2.3375-1.7875,3.5875
		c-3.0875,7.3625-0.8625,17.3625,5.175,23.4c-1.0625,1.65-2,3.375-2.8,5.1375c-1.2375-3.4375-3.25-6.0875-5.6875-7.425
		c-0.7875-0.4375-2.4125-0.95-2.6-1.0125c-0.3-0.1-0.65,0-0.8625,0.2375c-0.2125,0.2375-0.275,0.5875-0.15,0.8875
		c1.4875,3.475,1.9125,7.425,1.1875,11.1375c-0.25,1.25-0.625,2.5125-1,3.7375c-0.375,1.25-0.775,2.55-1.025,3.875
		c-1.525,7.7375,2.9875,17.7125,10.1,22.375c-0.6625,2.275-1.1125,4.6-1.3625,6.9c-2.2625-2.875-4.9875-4.7625-7.725-5.2625
		c-0.8875-0.1625-2.6-0.15-2.7875-0.15c-0.325,0-0.6125,0.2-0.75,0.4875c-0.125,0.3-0.075,0.6375,0.1375,0.8875
		c2.5125,2.825,4.15,6.45,4.625,10.2c0.1625,1.2625,0.2,2.5875,0.225,3.8625c0.0375,1.3125,0.075,2.6625,0.2375,4
		c0.95,7.6125,8.3875,15.5125,16.675,17.8125c0.15,2.2375,0.5,4.4375,1.0125,6.575c-3.0875-1.95-6.3-2.8125-9.05-2.375
		c-0.9,0.1375-2.5,0.725-2.675,0.8c-0.3,0.1125-0.5125,0.3875-0.5375,0.7125s0.1375,0.625,0.425,0.7875
		c3.3125,1.825,6.075,4.6875,7.775,8.0625c0.575,1.1375,1.05,2.375,1.5125,3.5625c0.475,1.225,0.95,2.4875,1.5625,3.6875
		c3.375,6.7,11.5375,11.3375,19.5625,11.3375c0.6,0,1.2125-0.025,1.8125-0.0875c0.9625,2.2375,2.125,4.375,3.45,6.35
		c-3.575-0.7625-6.8875-0.45-9.3125,0.9c-0.7875,0.4375-2.0875,1.55-2.2375,1.675c-0.25,0.2125-0.35,0.55-0.2625,0.85
		c0.0875,0.3125,0.35,0.5375,0.675,0.5875c3.7375,0.5625,7.325,2.3,10.0875,4.875c0.9375,0.875,1.8,1.8625,2.65,2.8125
		c0.8625,0.9875,1.7625,2,2.75,2.925c3.975,3.7125,8.5875,6.95,18.7,6.95c4.6875,0,10.575-0.7,18.125-2.375
		c1.375,0.7625,2.575,1.7125,3.2625,2.9125l0.025-0.0125c0.0625,0.225,0.1625,0.4125,0.2875,0.5625l0.45,0.5875
		c-2.2,1.1875-6.5125,2.45-14.2,1.25c-2.725-0.4375-3.6875,0.5125-4.025,1.125c-0.5,0.9125-0.2625,2.0875,0.6375,3.375
		c-3.7375,1.45-9.925,2.2625-19.2625-0.9375c-0.375-0.125-0.775,0.0625-0.925,0.425s0.0125,0.775,0.3625,0.95l9.575,4.575
		l-2.6875,3.0375c-0.175,0.2-0.225,0.475-0.15,0.725c0.0875,0.25,0.3,0.4375,0.55,0.4875c0.325,0.0625,4.7,0.9625,9.7,0.9625
		c4.175,0,8.8-0.625,11.8625-2.8625c0.5-0.3625,0.75-0.975,0.6625-1.5875c-0.0875-0.6375-0.525-1.1625-1.125-1.375
		c-0.425-0.15-0.8375-0.325-1.2375-0.5125c0.3625,0.0125,0.725,0.025,1.075,0.025c7.325,0,11-2.875,12.7625-5.1375
		c0.775,0.6125,1.925,0.8375,3.075,0.525l1.375-0.375l1.375,0.375c0.35,0.1,0.7,0.1375,1.05,0.1375
		c0.775,0,1.4875-0.2375,2.025-0.6625c1.7625,2.2625,5.4375,5.1375,12.725,5.1375c0.3625,0,0.725-0.0125,1.1-0.025
		c-0.4,0.175-0.8,0.35-1.2375,0.5125c-0.6,0.2125-1.0375,0.7375-1.125,1.375c-0.0875,0.6125,0.1625,1.225,0.6625,1.5875
		c3.0625,2.2375,7.6875,2.8625,11.8625,2.8625c5,0,9.375-0.8875,9.7-0.9625c0.2625-0.05,0.4625-0.2375,0.55-0.4875
		s0.025-0.525-0.15-0.725l-2.6875-3.0375l9.575-4.575c0.35-0.175,0.5125-0.5875,0.3625-0.95c-0.15-0.3625-0.5625-0.55-0.925-0.425
		c-9.3375,3.2-15.525,2.3875-19.2625,0.9375c0.9125-1.2875,1.1375-2.4625,0.6375-3.375c-0.3375-0.6125-1.3-1.5625-4.025-1.125
		c-7.7,1.2-12.0125-0.0625-14.2125-1.25l0.45-0.5875c0.1125-0.15,0.2125-0.3375,0.2875-0.5625l0.025,0.0125
		c0.6375-1.1125,1.7-2.0125,2.95-2.7375c1.725,0.8625,3.575,1.1875,5.35,1.1875c3.4625,0,6.675-1.2,8.275-1.925
		c0.4-0.175,0.75-0.425,1.1-0.675c0.8125-0.5875,2.85-0.775,4-0.6875c0.725,0.05,1.425,0.2375,2.1625,0.4375
		c0.4375,0.1125,0.9,0.2375,1.375,0.3375c1.6125,0.325,3.2625,0.3,4.875,0.2875c2.1625-0.025,4.6-0.1875,6.25-1.8875
		c0.2375-0.2375,0.425-0.5,0.625-0.75c0.2875-0.3625,0.55-0.7125,0.875-0.925c0.475-0.3,1.1125-0.3375,1.8125-0.3875
		c1.775-0.1125,3.575-0.3125,5.35-0.625c0.875-0.15,1.875-0.375,2.6625-1.025c1.1125-0.925,1.35-2.25,1.5625-3.425
		c0.0625-0.3625,0.125-0.7125,0.2125-1.0375c0.4125-1.5875,1.625-3.1,3.1625-3.9375c0.2375-0.125,0.4875-0.25,0.7375-0.3625
		c0.5875-0.275,1.2-0.5625,1.75-1.0375c0.9875-0.8375,1.5375-2.3125,0.7375-3.325c-0.3125-0.4-0.75-0.6-1.1-0.7375
		c-0.675-0.2625-1.3875-0.4125-2.0625-0.5625c-0.5-0.1125-0.975-0.2125-1.425-0.35c-0.475-0.15-1.225-0.4625-1.675-1
		c0.225-0.6875,0.2625-1.4125,0.3-2.0875c0.025-0.55,0.05-1.075,0.175-1.55c0.15-0.5875,0.4625-1.175,0.8-1.7875
		c0.0625-0.1125,0.125-0.225,0.1875-0.35c0.5625-0.7125,2.0875-1.525,3.2875-1.8375c0.7-0.1875,1.425-0.2375,2.1875-0.3
		c0.45-0.0375,0.925-0.075,1.4-0.1375c1.625-0.225,3.1875-0.7875,4.7-1.3375c2.0375-0.7375,4.2875-1.7,5.2625-3.85
		c0.1375-0.3125,0.2375-0.6125,0.3375-0.9125c0.15-0.4375,0.2875-0.8625,0.525-1.1625c0.35-0.4375,0.9375-0.6875,1.5875-0.9625
		c1.6375-0.6875,3.275-1.4875,4.85-2.3625c0.775-0.4375,1.65-0.9625,2.175-1.85c0.7375-1.2375,0.525-2.575,0.3375-3.75
		c-0.0625-0.3625-0.1125-0.7125-0.1375-1.05c-0.1375-1.6375,0.5125-3.4625,1.6875-4.75c0.1875-0.2,0.375-0.3875,0.575-0.5875
		c0.4625-0.4625,0.95-0.9375,1.3125-1.55c0.6625-1.1125,0.6875-2.6875-0.4-3.3875c-0.425-0.275-0.9125-0.325-1.275-0.3375
		c-0.725-0.025-1.4375,0.0625-2.1375,0.15c-0.5125,0.0625-0.9875,0.125-1.4625,0.1375c-0.5125,0.0125-1.3125-0.025-1.9125-0.3875
		c-0.0125-0.725-0.2125-1.425-0.4125-2.0625c-0.15-0.525-0.3-1.0375-0.35-1.5125c-0.05-0.6,0.05-1.2625,0.1625-1.95
		c0.075-0.475,0.15-0.9625,0.1875-1.45c0.0125-0.1125,0-0.225,0-0.3375l0.0125,0.0125c0.5125-0.6125,1.0625-1.1125,1.4-1.375
		c0.575-0.45,1.2125-0.775,1.8875-1.1375c0.4-0.2125,0.825-0.425,1.2375-0.675c1.4-0.8375,2.6125-1.975,3.7875-3.075
		c1.575-1.475,3.275-3.25,3.3375-5.6125c0.0125-0.3375-0.0125-0.6625-0.05-0.975c-0.0375-0.4625-0.075-0.9,0.025-1.2625
		c0.15-0.5375,0.5875-1,1.0875-1.5c1.2375-1.275,2.425-2.65,3.525-4.075c0.5375-0.7,1.1375-1.5375,1.275-2.55
		c0.2-1.425-0.525-2.575-1.1625-3.5875c-0.2-0.3125-0.3875-0.6125-0.5375-0.9125c-0.7625-1.4625-0.8875-3.3875-0.3125-5.0375
		c0.0875-0.2625,0.1875-0.5125,0.3-0.7625c0.25-0.6,0.5125-1.2375,0.6-1.9375c0.1625-1.2875-0.425-2.7375-1.7-2.9625
		c-0.5-0.0875-0.9625,0.0625-1.3125,0.1875c-0.675,0.2625-1.3,0.625-1.9125,0.975c-0.45,0.2625-0.8625,0.5-1.3,0.7
		c-0.7125,0.325-1.375,0.4625-1.9125,0.3875c-0.3-0.65-0.75-1.2125-1.175-1.725c-0.35-0.425-0.6875-0.825-0.9125-1.2625
		c-0.2625-0.4875-0.425-1.075-0.575-1.7c0.125-0.1625,0.25-0.3125,0.3625-0.425c0.4875-0.525,1.075-0.9625,1.6875-1.4125
		c0.3625-0.275,0.75-0.55,1.1125-0.8625c1.25-1.05,2.275-2.3625,3.2625-3.6375c1.325-1.7,2.7125-3.725,2.4-6.0625
		c-0.05-0.3375-0.125-0.65-0.2-0.95c-0.1125-0.45-0.2125-0.875-0.175-1.2625C200.8526,129.635,201.2276,129.11,201.6275,128.535"/>
	<path fill="#FFF685" d="M83.14,263.8976c1.0625,0.7,2.3375,1.3875,3.8,1.9125c0.125,0.05,0.15,0.15,0.1625,0.1875
		c0.0125,0.1125-0.05,0.1625-0.075,0.175c-5.1,3.725-15.4875,2.4625-19.1125,1.875l2.4625-2.7875
		c0.15-0.175,0.2125-0.4125,0.175-0.6375c-0.05-0.225-0.2-0.425-0.4125-0.525l-3.6625-1.75c6.125,0.975,10.4875,0.0625,13.375-1.15
		c0.5125,0.5375,1.5875,1.5625,3.1,2.575"/>
	<path fill="#FFF685" d="M85.9525,262.41h-2.35c-1.85-1.2875-2.9375-2.5375-2.9625-2.5625c-1.0625-1.1875-1.3125-2.1125-1.1-2.5
		c0.1875-0.35,0.9375-0.625,2.4875-0.375c8.0375,1.25,12.7125-0.025,15.35-1.525l1.675,2.175
		C97.49,259.785,93.89,262.785,85.9525,262.41"/>
	<path fill="#FFF685" d="M125.99,263.785c1.525-1.025,2.5875-2.05,3.1-2.575c2.8875,1.225,7.25,2.125,13.375,1.15l-3.6625,1.75
		c-0.2125,0.1-0.3625,0.2875-0.4125,0.525c-0.05,0.225,0.0125,0.4625,0.175,0.6375l2.4625,2.7875
		c-3.625,0.5875-14.0125,1.85-19.1125-1.875c-0.025-0.0125-0.0875-0.0625-0.075-0.175c0.0125-0.0375,0.0375-0.15,0.1625-0.1875
		c1.4625-0.5125,2.7375-1.2125,3.8-1.9125"/>
	<path fill="#FFF685" d="M126.9525,256.9725c1.55-0.25,2.3,0.025,2.4875,0.375c0.2125,0.3875-0.0375,1.3125-1.1125,2.5125
		c-0.0125,0.025-1.1,1.2625-2.95,2.55H122.99c-7.9,0.3625-11.5-2.625-13.0625-4.7875l1.675-2.175
		C114.2276,256.9601,118.9025,258.235,126.9525,256.9725"/>
	<path fill="#FFF685" d="M112.8526,251.185c-0.0875-0.1375-0.175-0.2875-0.2875-0.4375c-0.575-0.775-1.325-1.425-2.25-1.925
		c-0.1875-0.1-0.3875-0.2-0.6-0.3125c2.6125-3.325,5.8625-6.575,9.7-9.6625c0.325-0.2625,0.375-0.725,0.1125-1.0375
		c-0.2625-0.325-0.725-0.375-1.0375-0.1125c-2.075,1.675-4,3.3875-5.7375,5.15c-0.9125-0.95-3.2-2.55-8.2625-2.55
		s-7.35,1.6-8.2625,2.55c-1.7375-1.7625-3.65-3.475-5.7375-5.15c-0.325-0.2625-0.7875-0.2-1.0375,0.1125
		c-0.2625,0.325-0.2,0.7875,0.1125,1.0375c3.8375,3.0875,7.0875,6.325,9.7,9.6625c-0.2125,0.1-0.4125,0.2125-0.6,0.3125
		c-0.925,0.5-1.6875,1.15-2.25,1.925c-0.1125,0.15-0.2,0.3-0.2875,0.4375c-2.4375-2.725-7.0125-4.0625-9.725-4.65
		c-0.8625-0.1875-1.4875-0.9625-1.4875-1.85v-6.4875c0-1.05,0.85-1.9,1.9-1.9h7.1875c1.5875,0,2.175,0,4.8375-0.55
		c1.0625-0.2125,1.8875-0.4875,2.6125-0.7375c1.0625-0.35,1.9-0.6375,3.0875-0.5875c1.1375-0.05,1.9625,0.2375,3.0375,0.5875
		c0.725,0.2375,1.55,0.5125,2.6125,0.7375c2.65,0.55,3.25,0.55,4.8375,0.55h7.1875c1.05,0,1.9,0.85,1.9,1.9v6.4875
		c0,0.8875-0.625,1.6625-1.4875,1.85C119.865,247.1225,115.2901,248.46,112.8526,251.185"/>
	<path fill="#FAA627" d="M181.7775,72.785c0.3-0.4375,0.55-0.8875,0.8-1.325c0.3125-0.55,0.6-1.075,0.9625-1.5375
		c0.1125-0.1375,0.25-0.3125,0.3875-0.375c0.275-0.125,0.7625,0.175,0.9875,0.6c0.2,0.3875,0.2875,0.85,0.375,1.35
		c0.05,0.2625,0.1,0.5375,0.1625,0.8c0.475,1.925,1.8375,3.55,3.6375,4.375c0.3375,0.15,0.6875,0.2875,1.025,0.4
		c0.8875,0.325,1.725,0.6375,2.05,1.275c0.2375,0.475,0.1875,1.125,0.1125,1.75c-0.175,1.5625-0.4625,3.1375-0.825,4.7
		c-0.175,0.725-0.375,1.5625-0.0875,2.4c0.1875,0.575,0.5625,1.0125,0.9,1.3875c0.1625,0.1875,0.3125,0.3625,0.4375,0.5375
		c0.8375,1.25,0.4,3.0625-0.0625,4.675c-0.4,1.35-0.8,2.75-1.475,3.975c-0.2,0.3625-0.425,0.7125-0.6375,1.075
		c-0.4125,0.65-0.825,1.325-1.125,2.075c-0.15,0.3875-0.3625,1.075-0.5125,1.8375c-0.2375-0.1875-0.5-0.3375-0.7625-0.45
		c0.65-3.025,0.55-6.3,0.4625-8.9625c-0.0375-1.1-0.0875-2.3375-0.625-3.4625c-0.15-0.3-0.325-0.575-0.4875-0.8375
		c-0.175-0.2875-0.35-0.5625-0.4625-0.8375c-0.35-0.825-0.25-1.8125-0.15-2.8625c0.125-1.3375,0.25-2.7375-0.5125-3.975
		c-0.675-1.1125-1.8125-1.6625-2.9125-2.2c-1-0.4875-1.95-0.9625-2.3375-1.7875c-0.15-0.325-0.225-0.7375-0.2875-1.1625
		c-0.1-0.5875-0.225-1.25-0.5875-1.8375C180.9151,73.9225,181.44,73.2975,181.7775,72.785"/>
	<path fill="#FAA627" d="M160.14,41.8475c0.225-0.475,0.4125-0.95,0.5875-1.425c0.225-0.5875,0.4375-1.15,0.725-1.6625
		c0.0875-0.15,0.2-0.35,0.3375-0.425c0.2625-0.1625,0.775,0.05,1.0625,0.4375c0.25,0.35,0.4,0.8,0.5625,1.275
		c0.0875,0.2625,0.175,0.5125,0.275,0.7625c0.7625,1.825,2.35,3.2375,4.25,3.7875c0.35,0.1,0.725,0.175,1.075,0.25
		c0.925,0.1875,1.8,0.3625,2.2125,0.9625c0.3125,0.4375,0.35,1.0875,0.375,1.7125c0.0625,1.575,0.0125,3.175-0.1125,4.775
		c-0.0625,0.75-0.1375,1.5875,0.275,2.375c0.275,0.5375,0.7125,0.9125,1.1,1.2375c0.1875,0.1625,0.3625,0.3125,0.5125,0.475
		c1.0125,1.1,0.8625,2.975,0.625,4.6375c-0.1875,1.3875-0.3875,2.8375-0.8625,4.15c-0.1375,0.3875-0.3125,0.775-0.475,1.15
		c-0.3,0.7-0.625,1.4375-0.8,2.225c-0.075,0.325-0.15,0.7875-0.1875,1.3125c-0.275-0.0625-0.55-0.0875-0.8375-0.0875
		c0.1375-2.9875-0.4375-6.075-0.9125-8.6c-0.2-1.075-0.425-2.3-1.1375-3.325c-0.1875-0.275-0.4-0.525-0.6125-0.7625
		c-0.225-0.25-0.4375-0.5-0.5875-0.75c-0.4625-0.7625-0.525-1.75-0.575-2.8c-0.075-1.35-0.15-2.7375-1.1-3.8625
		c-0.8375-1-2.0375-1.375-3.2-1.75c-1.0625-0.3375-2.075-0.65-2.575-1.425c-0.2-0.3-0.325-0.7-0.4625-1.1125
		c-0.1875-0.5625-0.4-1.2-0.8625-1.7375C159.4525,43.0975,159.8775,42.3975,160.14,41.8475"/>
	<path fill="#FAA627" d="M162.4025,73.535c-0.45-0.1-0.9125-0.1625-1.35-0.2375c-0.975-0.1375-1.8875-0.275-2.6-0.75
		c-0.4-0.2625-0.7375-0.65-1.1-1.05c-0.175-0.1875-0.35-0.3875-0.525-0.5625c-1.15-1.1625-2.575-1.9625-3.9625-2.7375
		c-1.6375-0.9125-3.2-1.7875-4.2-3.1875c-0.75-1.0375-1.125-2.3-1.5375-3.625c-0.1875-0.6-0.375-1.225-0.6-1.825
		c-0.8-2.1375-2.1-4.1-3.75-5.675c-1.025-0.975-1.525-1.8875-1.5125-2.7625c0.05-0.0125,0.125-0.0125,0.2125-0.0125
		c2.325,0.05,4.725,0.0875,6.9125,0.85c2.325,0.8,4.0625,2.3875,4.65,4.25c0.125,0.375,0.2,0.7875,0.2875,1.225
		c0.2375,1.175,0.5125,2.5,1.5875,3.3375c0.5125,0.4,1.1,0.6,1.625,0.775c0.475,0.1625,0.925,0.3125,1.2375,0.575
		c0.525,0.45,0.7,1.2,0.8875,2.0625c0.175,0.7625,0.35,1.55,0.8,2.25c0.7,1.0875,1.85,1.65,2.8625,2.15
		c0.275,0.1375,0.55,0.2625,0.8,0.4125c3.125,1.7,4.9375,3.425,5.5375,5.2625l0,0c0.125,0.3875,0.25,0.7625,0.375,1.1125
		c0.0625,0.1875,0.1375,0.3625,0.1875,0.5375c0.025,0.0875,0.05,0.175,0.075,0.2625C167.515,74.91,164.7525,74.06,162.4025,73.535"
		/>
	<path fill="#FAA627" d="M179.2901,104.46c-0.4375-0.1625-0.875-0.3-1.3-0.4375c-0.9375-0.2875-1.825-0.55-2.4625-1.1375
		c-0.35-0.325-0.6375-0.75-0.9375-1.2c-0.1375-0.2125-0.2875-0.425-0.4375-0.6375c-0.9625-1.325-2.25-2.325-3.5-3.3
		c-1.4875-1.15-2.8875-2.25-3.675-3.775c-0.5875-1.1375-0.775-2.4375-0.975-3.8125c-0.0875-0.625-0.1875-1.2625-0.325-1.9
		c-0.475-2.225-1.4625-4.3625-2.85-6.1625c-0.8625-1.125-1.225-2.0875-1.0875-2.95c0.0875,0,0.125,0,0.2125,0.025
		c2.2875,0.3875,4.6625,0.8,6.7125,1.875c2.175,1.1375,3.6625,2.975,3.9625,4.9C172.69,86.335,172.715,86.76,172.74,87.21
		c0.0625,1.1875,0.125,2.55,1.075,3.5375c0.4375,0.475,1,0.7625,1.4875,1.0125c0.45,0.225,0.8625,0.45,1.1375,0.7625
		c0.45,0.525,0.5125,1.2875,0.575,2.175c0.0625,0.775,0.125,1.575,0.4625,2.3375c0.525,1.175,1.5875,1.9125,2.5125,2.55
		c0.25,0.175,0.5,0.35,0.7375,0.525c2.1625,1.6375,3.3625,3.925,3.4875,6.6125c-0.0125,0.1875-0.0375,0.375-0.05,0.55
		c-0.0125,0.1625-0.025,0.3125-0.0375,0.4625C183.1151,106.41,181.5401,105.335,179.2901,104.46"/>
	<path fill="#FAA627" d="M181.0401,142.1475c-0.325-0.375-0.6625-0.725-1-1.0625c-0.725-0.7375-1.425-1.4375-1.75-2.35
		c-0.1875-0.5125-0.2625-1.1-0.3375-1.7125c-0.0375-0.2875-0.075-0.575-0.1125-0.85c-0.3-1.8-1.0375-3.45-1.75-5.0375
		c-0.85-1.9125-1.6625-3.7125-1.7125-5.6875c-0.0375-1.475,0.35-2.9125,0.7625-4.4375c0.1875-0.6875,0.375-1.3875,0.525-2.1
		c0.525-2.5,0.5375-5.15,0.0625-7.65c-0.3-1.575-0.2125-2.7625,0.2625-3.6125c0.025,0.0125,0.05,0.0375,0.0875,0.0625
		c1.9,1.4875,3.8625,3.0375,5.2625,5.1125c1.5,2.2375,2.0625,4.8625,1.4875,7.0375c-0.1125,0.4375-0.275,0.8875-0.45,1.3625
		c-0.4625,1.3-0.95,2.6375-0.5375,4.0625c0.2,0.675,0.575,1.2375,0.9,1.7375c0.3,0.45,0.6,0.8875,0.7125,1.35
		c0.2,0.7875-0.1,1.675-0.4125,2.6c-0.275,0.8125-0.5625,1.6625-0.575,2.5875c-0.025,1.425,0.575,2.6125,1.1625,3.7625
		c0.15,0.3,0.3,0.6,0.4375,0.9c1.125,2.45,2.05,5.075,1.3375,7.75c-0.0375,0.15-0.0875,0.3-0.1375,0.4375
		c-0.025,0.0875-0.05,0.1625-0.075,0.25l0,0c-0.4,1.15-1.0375,2.225-1.825,3.1c-0.0125-0.025-0.0125-0.0375-0.025-0.0625
		c-0.1-0.225-0.225-0.45-0.3375-0.6625C183.39,146.1475,182.8651,144.3225,181.0401,142.1475"/>
	<path fill="#FAA627" d="M176.9776,179.26c-0.25-0.425-0.5375-0.825-0.8125-1.2125c-0.6-0.85-1.175-1.65-1.35-2.6
		c-0.1-0.5375-0.0875-1.125-0.0625-1.7375c0.0125-0.2875,0.0125-0.575,0.0125-0.8625c-0.0125-1.825-0.475-3.5625-0.925-5.25
		c-0.5375-2.0125-1.0625-3.925-0.7875-5.9c0.2-1.4625,0.8-2.825,1.45-4.2625c0.2875-0.65,0.5875-1.3125,0.85-1.9875
		c0.9125-2.3875,1.35-5,1.275-7.55c-0.05-1.6125,0.225-2.7625,0.8375-3.525c0.025,0.025,0.05,0.05,0.075,0.075
		c1.6375,1.775,3.3375,3.6,4.3875,5.875c1.125,2.45,1.2625,5.125,0.3625,7.1875c-0.1875,0.4125-0.4125,0.8375-0.65,1.275
		c-0.6625,1.2125-1.3625,2.45-1.175,3.925c0.0875,0.7,0.375,1.3125,0.625,1.85c0.225,0.5,0.45,0.9625,0.4875,1.4375
		c0.0625,0.8125-0.3625,1.6375-0.825,2.5c-0.4,0.7625-0.8125,1.55-0.975,2.4625c-0.25,1.4,0.1625,2.675,0.5625,3.9
		c0.1,0.325,0.2,0.6375,0.3,0.95c0.8625,3.075,0.6375,6.2625-0.5625,8.6625c-0.1125,0.15-0.225,0.2875-0.325,0.425
		c-0.4375,0.5625-0.9375,1.075-1.5,1.525C178.5275,183.885,178.1026,181.135,176.9776,179.26"/>
	<path fill="#FAA627" d="M158.865,212.26c-0.0625-0.4875-0.175-0.9625-0.275-1.425c-0.225-1.0125-0.4375-1.975-0.225-2.925
		c0.1125-0.5375,0.3625-1.0625,0.625-1.625c0.125-0.2625,0.25-0.525,0.35-0.7875c0.7125-1.6875,0.9625-3.4625,1.2-5.1875
		c0.2875-2.075,0.575-4.025,1.5875-5.7375c0.75-1.275,1.85-2.2875,3.0125-3.35c0.525-0.475,1.05-0.975,1.5625-1.5
		c1.775-1.8375,3.2-4.0625,4.125-6.4375c0.5875-1.5,1.2875-2.45,2.15-2.9125c0.0125,0.025,0.025,0.0625,0.0375,0.1
		c0.8125,2.275,1.65,4.625,1.725,7.125c0.075,2.6875-0.85,5.2125-2.4875,6.75c-0.3375,0.3125-0.7,0.6-1.1,0.9125
		c-1.0875,0.85-2.2125,1.725-2.625,3.15c-0.2,0.675-0.175,1.35-0.1625,1.95c0.0125,0.55,0.0375,1.0625-0.1125,1.5125
		c-0.2625,0.775-0.975,1.3625-1.7375,1.975c-0.675,0.55-1.3625,1.1125-1.8625,1.875c-0.775,1.1875-0.9,2.525-1.025,3.8
		c-0.025,0.3375-0.0625,0.6625-0.1,0.9875c-0.4,3.0625-1.925,5.7375-4.3,7.5875c-0.2,0.125-0.3875,0.2625-0.575,0.3875
		s-0.3625,0.25-0.5375,0.3625c-0.5125,0.3375-1.0625,0.6-1.625,0.825C157.99,217.41,159.1775,214.535,158.865,212.26"/>
	<path fill="#FAA627" d="M129.4151,237.7725c0.1-0.4875,0.1625-0.975,0.2125-1.4375c0.125-1.0375,0.25-2.0125,0.75-2.8375
		c0.2875-0.4625,0.7-0.8875,1.125-1.325c0.2-0.2,0.4-0.4125,0.6-0.625c1.225-1.3625,2.05-2.9625,2.85-4.5
		c0.9625-1.85,1.8625-3.6125,3.3875-4.8875c1.1375-0.95,2.5-1.5375,3.95-2.175c0.65-0.275,1.3125-0.575,1.9625-0.9
		c2.2875-1.15,4.3625-2.775,6.025-4.7125c1.05-1.225,2.025-1.8875,3-2.0375c0,0.0375,0,0.0625,0,0.1125
		c0.0125,2.4125,0.0375,4.9125-0.725,7.3c-0.8125,2.5625-2.525,4.6375-4.575,5.55c-0.4125,0.1875-0.8625,0.3375-1.3375,0.5
		c-1.3125,0.4375-2.6625,0.9-3.525,2.1125c-0.4125,0.575-0.6125,1.225-0.7875,1.7875c-0.1625,0.525-0.325,1.0125-0.6125,1.4
		c-0.5,0.65-1.375,0.9625-2.3,1.3c-0.8125,0.2875-1.65,0.6-2.3875,1.15c-1.1375,0.8625-1.6875,2.075-2.225,3.25
		c-0.1375,0.3-0.275,0.6125-0.425,0.9c-0.975,1.9125-4.2,3.75-7.3625,5.0375C128.4275,241.41,128.99,239.86,129.4151,237.7725"/>
	<path fill="#FAA627" d="M67.74,222.16c2.45,1.625,4.9875,3.3,7,5.35c3.9625,4.05,6.25,9.75,6,14.675
		c-3.275-2.8375-5.1125-5.95-6.775-8.775c-1.8375-3.1-3.4125-5.7625-6.375-7.35c-1.95-1.0375-4.05-1.675-6.1125-2.2375
		l-0.0125-0.025c-0.825-1.9625-1.6-3.8125-1.9-5.85c-0.1-0.675-0.125-1.675-0.125-2.6C61.64,218.135,64.7276,220.1725,67.74,222.16"
		/>
	<path fill="#FAA627" d="M39.715,188.785c0.1375-0.675,0.4625-1.6125,0.775-2.4875c1.1125,3.3875,3.3125,6.375,5.4375,9.275
		c1.7375,2.375,3.5375,4.825,4.7125,7.4375c2.3875,5.35,2.2875,11.3-0.25,16.0125c-0.175-1.15-0.325-2.3125-0.475-3.55
		c-0.725-5.8-1.4625-11.7875-5.4875-16.3c-1.475-1.65-3.2125-2.975-4.9625-4.2125v-0.0125
		C39.3776,192.8225,39.2901,190.81,39.715,188.785"/>
	<path fill="#FAA627" d="M30.4776,155.035c0.3625-0.5875,0.975-1.3625,1.575-2.0875c-0.0875,3.5625,0.9875,7.1125,2.025,10.5625
		c0.85,2.8125,1.725,5.725,1.95,8.5875c0.45,5.725-1.55,11.175-5.35,14.775c-0.0125-0.025-0.025-0.05-0.05-0.0625
		c-0.0375-0.0625-0.0875-0.1375-0.1375-0.225c0.2125-1.0625,0.45-2.1375,0.6875-3.2c1.25-5.6125,2.55-11.4125,0.2875-16.9875
		c-0.8375-2.05-2.0375-3.8875-3.2625-5.6375v-0.0125C28.8151,158.7225,29.4025,156.7975,30.4776,155.035"/>
	<path fill="#FAA627" d="M32.615,119.185c0.525-0.45,1.35-0.9875,2.1375-1.4875c-1.2,3.3625-1.3,7.0625-1.4,10.6625
		c-0.075,2.9375-0.1625,5.975-0.85,8.7625c-1.4,5.7125-5.2625,10.6875-9.95,12.9375c-0.025-0.1375-0.0625-0.3-0.1-0.4875
		c-0.0125-0.0625-0.025-0.125-0.0375-0.2c0.575-1,1.175-2,1.8125-3.0625c3.0125-4.975,6.125-10.1125,5.7375-16.05
		c-0.15-2.2125-0.7125-4.325-1.3375-6.375l0.0125-0.0125C29.8776,122.16,31.0401,120.535,32.615,119.185"/>
	<path fill="#FAA627" d="M42.115,84.6225c0.6-0.325,1.525-0.7,2.4-1.025c-1.85,3.05-2.7,6.65-3.5125,10.1625
		c-0.675,2.8625-1.3625,5.825-2.5875,8.4125c-2.425,5.1-6.775,8.8125-11.775,10.0875c0.0125-0.075,0.0125-0.1375,0.0125-0.2125
		c0.0125-0.0625,0.0125-0.125,0.025-0.2c0.7125-0.825,1.4625-1.6625,2.2-2.4625c3.7375-4.1125,7.5875-8.375,8.425-14.4375
		c0.3-2.2,0.175-4.375-0.025-6.5125l0.0125-0.0125C38.84,86.985,40.3025,85.6225,42.115,84.6225"/>
	<path fill="#FAA627" d="M60.765,57.66c0.6125-0.075,1.4875-0.075,2.325-0.05c-2.65,2.0125-4.6375,4.8375-6.575,7.575
		c-1.6,2.2625-3.25,4.6125-5.2375,6.4375c-3.825,3.5125-8.8,5.2125-13.525,4.675c0.0375-0.1125,0.075-0.25,0.125-0.3875
		c0.0125-0.0375,0.025-0.0875,0.0375-0.125c0.8625-0.4375,1.7375-0.8625,2.6-1.275c4.7-2.25,9.55-4.575,12.4-9.5375
		c1.0375-1.8125,1.7-3.7625,2.275-5.6875C57.0775,58.56,58.84,57.885,60.765,57.66"/>
	<path fill="#FAA627" d="M35.8776,54.235c0.8375-0.85,1.8-1.6375,2.7125-2.4c0.9625-0.7875,1.95-1.6125,2.85-2.525
		c2.3125-2.325,4.0125-5.275,4.9125-8.4375c0.125,0.175,0.225,0.35,0.3,0.4875c1.7125,3.2875,0.6125,7.5-0.0625,9.4125
		c-1.3,0.95-2.5125,1.975-3.6,3.075c-4.4625,4.5-7.8125,11.9875-8.9875,20.1c-0.425,0.35-0.8375,0.7-1.2375,1.0625
		C30.4151,68.585,31.0275,59.11,35.8776,54.235"/>
	<path fill="#FAA627" d="M16.3025,91.16c0.4875-1.175,1.1125-2.325,1.725-3.4375c0.625-1.1625,1.275-2.35,1.8-3.6
		c1.35-3.2375,1.85-6.8375,1.4625-10.325c0.225,0.15,0.4375,0.3,0.575,0.425c3.0125,2.5625,3.5875,7.175,3.6875,9.325
		c-0.9,1.45-1.6875,2.95-2.325,4.45c-2.8125,6.6875-3.325,15.3625-1.3875,23.225c-0.325,0.425-0.6375,0.85-0.95,1.2875
		C15.5775,106.9725,13.5525,97.735,16.3025,91.16"/>
	<path fill="#FAA627" d="M8.6525,130.785c0.25-1.25,0.625-2.5,0.9875-3.7125c0.375-1.2625,0.775-2.5625,1.0375-3.8875
		c0.675-3.4375,0.4375-7.075-0.65-10.4125c0.25,0.1,0.4875,0.2,0.65,0.3c3.4625,1.9125,4.9625,6.3125,5.5,8.4
		c-0.5875,1.6125-1.0625,3.225-1.375,4.825c-1.3125,6.65,0.0625,15.6375,3.4875,23.1125c-0.225,0.5875-0.45,1.175-0.65,1.775
		C11.2775,146.76,7.265,137.785,8.6525,130.785"/>
	<path fill="#FAA627" d="M11.365,173.5725c-0.1625-1.2625-0.1875-2.575-0.225-3.8375c-0.0375-1.3125-0.075-2.675-0.2375-4.025
		c-0.4375-3.475-1.8-6.85-3.8875-9.675c0.275,0.0125,0.525,0.0375,0.7125,0.075c3.8875,0.725,6.6875,4.4375,7.85,6.25
		c-0.05,1.7125,0.0125,3.4,0.2125,5.0125c0.9,7.1875,4.8375,15,10.525,20.9125c-0.0125,0.525,0,1.0375,0.0125,1.5625
		C18.84,187.5225,12.2276,180.4225,11.365,173.5725"/>
	<path fill="#FAA627" d="M27.9151,212.66c-0.575-1.1375-1.0375-2.35-1.5-3.5375c-0.475-1.225-0.9625-2.5-1.575-3.7125
		c-1.575-3.125-3.9875-5.85-6.9-7.825c0.2625-0.075,0.5125-0.1375,0.6875-0.1625c3.9-0.625,7.7875,1.9375,9.4875,3.25
		c0.525,1.625,1.15,3.2,1.875,4.65c3.3125,6.6,9.35,12.4375,16.55,16.025c0.1875,0.5625,0.3875,1.125,0.6,1.6875
		C39.4776,223.4975,31.1276,219.035,27.9151,212.66"/>
	<path fill="#FAA627" d="M56.7526,244.435c-0.925-0.8625-1.8-1.85-2.6375-2.8c-0.8625-0.9875-1.7625-2.0125-2.7625-2.9375
		c-2.5625-2.3875-5.775-4.1125-9.1875-4.9375c0.225-0.1625,0.425-0.3,0.5875-0.4c3.45-1.9375,7.975-0.8875,10.0375-0.2375
		c1.05,1.35,2.175,2.6,3.375,3.7125c6.4,5.975,17.1875,9.9875,28.8375,10.7125c0.325,0.2,0.675,0.35,1.0625,0.4375
		c1.0625,0.225,2.425,0.575,3.8125,1.0875C68.615,253.435,62.0525,249.3725,56.7526,244.435"/>
	<path fill="#FFF685" d="M106.2525,257.885l-1.7625-0.475l-1.7625,0.475c-0.775,0.2125-1.5875,0.0375-1.9375-0.4125l-3.6-4.6875
		c-0.1375-0.175,0.025-0.625,0.4125-1.15c0.4375-0.6,1.025-1.1,1.7625-1.5c0.9375-0.5125,2.7125-1.3375,4.2125-1.3375
		c0.0625,0,0.1375,0,0.2,0h0.025h1.4125c1.55-0.075,3.425,0.8,4.4125,1.325c0.725,0.3875,1.325,0.9,1.7625,1.5
		c0.3875,0.525,0.5375,0.975,0.4125,1.15l-3.6,4.6875C107.8275,257.91,107.015,258.0851,106.2525,257.885"/>
	<path fill="#FAA627" d="M164.0025,230.485c0.525,0.1625,1.05,0.275,1.575,0.3875c0.65,0.1375,1.2625,0.275,1.825,0.5
		c0.0875,0.0375,0.3375,0.1375,0.425,0.2375c0.1375,0.175-0.05,0.75-0.5125,1.15c-0.3875,0.325-0.8875,0.5625-1.4,0.8125
		c-0.275,0.125-0.55,0.2625-0.8125,0.4c-1.9375,1.05-3.4,2.8875-3.9375,4.925c-0.1,0.3875-0.175,0.775-0.2375,1.15
		c-0.1875,1.0375-0.35,1.9375-1.025,2.5c-0.4875,0.4125-1.2125,0.5625-1.925,0.6875c-1.7125,0.3-3.4625,0.5-5.2125,0.6125
		c-0.8,0.05-1.7125,0.1-2.5375,0.625c-0.5625,0.35-0.9375,0.85-1.275,1.2875c-0.175,0.225-0.3375,0.4375-0.5125,0.6125
		c-1.2125,1.2625-3.2875,1.3875-5.125,1.4125c-1.525,0.0125-3.1,0.0375-4.5375-0.2625c-0.425-0.0875-0.8375-0.2-1.275-0.3125
		c-0.775-0.2125-1.575-0.425-2.45-0.4875c-0.925-0.075-3.65-0.025-5.05,0.975c-0.2875,0.2125-0.55,0.3875-0.8125,0.5125
		c-1.5875,0.7125-6.675,2.6875-11.0875,1.25c1.7125-0.725,3.4875-1.1875,4.8-1.475c0.8625-0.1875,1.5875-0.7,2.0625-1.4
		c0.5375,0.075,1.125,0.1125,1.775,0.1125c5.075,0,13.125-2.0125,16.475-3.075c1.15-0.375,2.4625-0.7875,3.55-1.6625
		c0.2875-0.2375,0.55-0.4875,0.8-0.7375c0.275-0.275,0.5375-0.5375,0.825-0.7375c0.85-0.6125,1.9375-0.825,3.1-1.0625
		c1.45-0.2875,2.9375-0.575,4.1-1.6875c1.0375-1,1.4125-2.3,1.775-3.55c0.3375-1.175,0.6625-2.275,1.5125-2.95
		c0.3375-0.2625,0.775-0.4625,1.225-0.675c0.65-0.3,1.325-0.6125,1.875-1.175C162.49,229.8475,163.1775,230.2225,164.0025,230.485"
		/>
	<path fill="#FAA627" d="M189.1026,193.96c0.55-0.0125,1.0875-0.0875,1.6125-0.15c0.6625-0.0875,1.275-0.1625,1.8875-0.1375
		c0.0875,0,0.375,0.0125,0.4875,0.0875c0.175,0.1125,0.2,0.725-0.1125,1.25c-0.2625,0.4375-0.65,0.825-1.0625,1.225
		c-0.2125,0.2125-0.4375,0.425-0.6375,0.65c-1.475,1.625-2.2625,3.85-2.0875,5.95c0.0375,0.4,0.1,0.7875,0.15,1.1625
		c0.1625,1.05,0.3125,1.95-0.1375,2.7c-0.325,0.55-0.9625,0.9375-1.5875,1.2875c-1.525,0.85-3.1,1.625-4.7125,2.3
		c-0.7375,0.3125-1.5875,0.6625-2.1875,1.425c-0.4125,0.5125-0.6,1.1125-0.775,1.6375c-0.0875,0.2625-0.175,0.525-0.275,0.75
		c-0.725,1.6-2.6375,2.4-4.375,3.025c-1.4375,0.5125-2.9125,1.05-4.375,1.2625c-0.425,0.0625-0.85,0.0875-1.3,0.125
		c-0.8,0.0625-1.6375,0.125-2.475,0.35c-0.425,0.1125-1.2125,0.3875-2.025,0.8125c0.025-0.325,0-0.6375-0.0625-0.925
		c3.2125-1.3375,6.1375-3.5375,8.75-5.5125c0.9625-0.725,2.0625-1.5625,2.8-2.7375c0.2-0.325,0.3625-0.65,0.5125-0.9625
		c0.175-0.35,0.3375-0.6875,0.5375-0.975c0.5875-0.8625,1.55-1.425,2.575-2.025c1.275-0.7375,2.5875-1.5125,3.3125-2.95
		c0.65-1.2875,0.575-2.6375,0.5125-3.9375c-0.0625-1.225-0.125-2.375,0.4625-3.2875c0.2375-0.3625,0.575-0.6875,0.9375-1.0375
		c0.5125-0.5,1.05-1.0125,1.3875-1.7375C187.465,193.86,188.2401,193.985,189.1026,193.96"/>
	<path fill="#FAA627" d="M194.315,154.56c0.075-0.425,0.2625-0.8625,0.45-1.325c0.2875-0.6625,0.5625-1.35,0.5875-2.1375
		c0.85-0.0125,1.6625-0.2875,2.2375-0.55c0.5-0.225,0.9625-0.5,1.425-0.775c0.575-0.3375,1.1125-0.65,1.675-0.8625
		c0.0875-0.0375,0.35-0.1375,0.475-0.1125c0.2125,0.0375,0.475,0.5875,0.4,1.2c-0.0625,0.5-0.275,1.0125-0.4875,1.5375
		c-0.1125,0.275-0.225,0.5625-0.325,0.85c-0.725,2.075-0.5625,4.425,0.4125,6.2875c0.1875,0.35,0.4,0.6875,0.6,1.0125
		c0.5625,0.9,1.05,1.675,0.9375,2.5375c-0.0875,0.6375-0.525,1.2375-0.9625,1.8c-1.0625,1.3875-2.2125,2.7125-3.4375,3.9625
		c-0.5625,0.575-1.2,1.2375-1.45,2.175c-0.175,0.6375-0.1125,1.2625-0.075,1.8125c0.025,0.275,0.05,0.55,0.0375,0.8
		c-0.05,1.75-1.4875,3.2375-2.825,4.5c-1.1125,1.0375-2.275,2.1125-3.525,2.875c-0.3625,0.225-0.75,0.4125-1.15,0.625
		c-0.7125,0.375-1.45,0.75-2.1375,1.2875c-0.2625,0.2-0.5375,0.45-0.825,0.725c-0.125-0.275-0.2875-0.5125-0.475-0.725
		c2.125-2.4,3.825-5.3625,5.225-7.8c0.6-1.05,1.2875-2.25,1.5-3.625c0.0625-0.375,0.075-0.7375,0.0875-1.0875
		c0.025-0.3875,0.0375-0.7625,0.1125-1.1c0.2-1.025,0.875-1.925,1.575-2.8625c0.875-1.1875,1.7875-2.4125,1.8875-4.0125
		c0.0875-1.4375-0.5-2.65-1.075-3.825C194.64,156.6725,194.1275,155.635,194.315,154.56"/>
	<path fill="#FAA627" d="M200.315,127.66c-0.4625,0.6625-0.9875,1.4125-1.0875,2.375c-0.0625,0.65,0.0875,1.2625,0.2125,1.8
		c0.0625,0.275,0.1375,0.5375,0.1625,0.7875c0.2375,1.7375-0.95,3.4375-2.0875,4.8875c-0.9375,1.2-1.9,2.45-3.025,3.4
		c-0.325,0.275-0.675,0.525-1.0375,0.8c-0.55,0.4125-1.1125,0.8375-1.6375,1.35c-0.175-0.425-0.375-0.8-0.625-1.1125
		c1.225-2.3,2.2-4.85,2.9875-6.925c0.425-1.1375,0.9125-2.425,0.9-3.8125c0-0.375-0.0375-0.7375-0.075-1.0875
		c-0.0375-0.3875-0.0875-0.75-0.0625-1.1c0.0375-1.05,0.55-2.0375,1.1-3.0875c0.675-1.3125,1.3875-2.6625,1.225-4.2625
		c-0.1375-1.4375-0.9125-2.5375-1.675-3.6c-0.7-1-1.375-1.9375-1.3625-3.025c0-0.4375,0.1125-0.8875,0.2375-1.375
		c0.175-0.6875,0.3375-1.4,0.25-2.1625c0.775-0.125,1.4875-0.5125,2.125-0.9375c0.45-0.3,0.875-0.65,1.2875-0.9875
		c0.5125-0.425,1-0.8125,1.525-1.1125c0.075-0.05,0.3125-0.1875,0.4625-0.1875l0,0c0.2125,0,0.5625,0.5,0.575,1.125
		c0.0125,0.5125-0.1125,1.0375-0.2375,1.6c-0.075,0.3-0.1375,0.5875-0.1875,0.8875c-0.375,2.1625,0.1375,4.4625,1.4,6.1375
		c0.2375,0.3125,0.5,0.6125,0.75,0.9c0.7,0.8,1.3,1.4875,1.325,2.3625c0.0125,0.6375-0.3125,1.3-0.6625,1.9375
		C202.2525,124.735,201.3275,126.2225,200.315,127.66"/>
	<path fill="#FFF685" d="M149.5525,46.135c-0.0875-0.175-0.1875-0.35-0.275-0.525c-0.8-1.4875-1.375-2.675-0.7375-3.35
		c0.475-0.5,1.4625-0.3875,2.1625-0.0625c0.35,0.1625,0.6875,0.35,1.0375,0.5625c0.6,0.35,1.225,0.725,1.95,0.925
		c0.575,0.1625,1.175,0.2,1.75,0.25c0.925,0.075,1.7375,0.125,2.2125,0.6375c0.3,0.3125,0.45,0.7875,0.6125,1.2875
		c0.1625,0.4875,0.325,0.9875,0.6375,1.4625c0.8,1.2,2.1625,1.6375,3.375,2.0125c1,0.3125,1.95,0.6125,2.5125,1.2875
		c0.625,0.7375,0.6875,1.8375,0.75,2.9875c0.0625,1.1875,0.1375,2.4125,0.7875,3.4875c0.225,0.3625,0.4875,0.6625,0.7375,0.95
		c0.1875,0.2125,0.3625,0.4125,0.5125,0.625c0.5375,0.775,0.725,1.7875,0.9,2.7625c0.5125,2.7625,1.0875,5.875,0.85,8.85
		c0,0-0.0125,0-0.0125,0.0125c-0.35,0.275-0.5875,0.6-0.7375,0.95c-1.3625-1.5625-3.225-2.7125-4.725-3.525
		c-0.275-0.15-0.575-0.3-0.8625-0.4375c-0.925-0.45-1.8-0.8875-2.275-1.625c-0.3125-0.4875-0.45-1.1125-0.6125-1.775
		c-0.225-0.9875-0.475-2.1-1.375-2.8625c-0.525-0.45-1.1625-0.6625-1.7125-0.85c-0.45-0.15-0.8875-0.3-1.1875-0.55
		c-0.65-0.5125-0.85-1.4625-1.05-2.475c-0.0875-0.45-0.1875-0.925-0.325-1.375c-0.575-1.8375-2.025-3.4375-3.9875-4.5
		C150.69,49.51,150.3775,47.71,149.5525,46.135"/>
	<path fill="#FFF685" d="M170.6651,75.4475c-0.0625-0.175-0.125-0.3625-0.2-0.5625c-0.575-1.5875-0.9625-2.85-0.225-3.425
		c0.5375-0.425,1.5-0.1625,2.15,0.2625c0.325,0.2125,0.625,0.45,0.9375,0.7125c0.5375,0.4375,1.1,0.9,1.8,1.2
		c0.55,0.25,1.125,0.375,1.6875,0.5c0.9125,0.2125,1.7,0.3875,2.1,0.9625c0.25,0.35,0.325,0.85,0.4125,1.3625
		c0.0875,0.5125,0.175,1.025,0.4125,1.5375c0.6125,1.3125,1.8875,1.9375,3.025,2.5c0.95,0.4625,1.8375,0.9,2.3,1.65
		c0.5,0.825,0.4,1.9125,0.3,3.0625c-0.1125,1.1875-0.225,2.4125,0.2625,3.575c0.1625,0.3875,0.375,0.725,0.5875,1.05
		c0.15,0.2375,0.3,0.4625,0.4125,0.7c0.4125,0.85,0.45,1.875,0.4875,2.875c0.1,2.7625,0.2,5.8875-0.4625,8.7625
		c-0.0375,0.0125-0.0625,0.0125-0.1,0.0125c-0.7125,0.2-1.2,0.6375-1.5375,1.2125c-0.6625-1.75-1.8125-3.2625-3.4125-4.475
		c-0.25-0.1875-0.525-0.375-0.7875-0.5625c-0.85-0.5875-1.65-1.15-2-1.9375c-0.2375-0.525-0.2875-1.1625-0.3375-1.85
		c-0.075-1-0.1625-2.15-0.9375-3.0375c-0.45-0.525-1.05-0.825-1.5625-1.1c-0.425-0.225-0.825-0.425-1.1-0.7125
		c-0.5625-0.6-0.625-1.575-0.675-2.6c-0.025-0.4625-0.05-0.9375-0.125-1.4125c-0.3-1.9-1.4875-3.7-3.2625-5.0375
		C171.2901,78.96,171.2525,77.1225,170.6651,75.4475"/>
	<path fill="#FFF685" d="M185.6525,108.06c0.025-0.2125,0.0375-0.4375,0.0625-0.6625c0.125-1.525,0.2875-3.425,1.25-3.6875
		c0.625-0.175,1.325,0.55,1.725,1.275c0.075,0.125,0.1375,0.2625,0.2,0.4c0.0625,0.2125,0.15,0.4125,0.275,0.6
		c0.025,0.0625,0.0625,0.125,0.0875,0.2c0.3,0.7125,0.6125,1.4375,1.1,2.075c0.3875,0.5125,0.8625,0.925,1.3125,1.325
		c0.7375,0.65,1.375,1.2125,1.5,2.025c0.075,0.5125-0.0625,1.075-0.2125,1.675c-0.1375,0.55-0.275,1.125-0.2875,1.75
		c-0.0125,1.5875,0.8375,2.7875,1.65,3.95c0.6625,0.9375,1.2875,1.825,1.3875,2.8375c0.1125,1.1375-0.4625,2.225-1.0625,3.3875
		c-0.6,1.15-1.225,2.35-1.275,3.75c-0.0125,0.4625,0.025,0.9125,0.075,1.3375c0.0375,0.325,0.075,0.625,0.075,0.925
		c0.0125,1.1-0.4,2.1875-0.8,3.2375c-0.7375,1.95-1.6375,4.325-2.75,6.45c-0.3875-0.175-0.8-0.2625-1.225-0.225
		c-0.7625,0.0875-1.3375,0.4625-1.775,1.0125c-0.3125-1.4375-0.8625-2.825-1.4875-4.15c-0.15-0.325-0.3125-0.6375-0.4625-0.95
		c-0.525-1.025-1.0125-1.9875-0.9875-3.0125c0.0125-0.675,0.25-1.375,0.5-2.1125c0.375-1.1,0.7625-2.25,0.45-3.4875
		c-0.175-0.7375-0.5875-1.325-0.9375-1.85c-0.2875-0.4375-0.575-0.85-0.7-1.2875c-0.275-0.9375,0.1125-1.9875,0.5125-3.1
		c0.175-0.4875,0.3625-0.9875,0.4875-1.5c0.55-2.0875,0.225-4.5125-0.825-6.725C184.7025,111.985,185.4525,110.0725,185.6525,108.06
		"/>
	<path fill="#FFF685" d="M184.3775,182.8975c0.6125,0.1875,0.8375,1.175,0.7875,2c-0.025,0.4125-0.1,0.85-0.1625,1.3
		c-0.125,0.7625-0.25,1.5375-0.175,2.35c0.0625,0.6375,0.2375,1.2375,0.4,1.825c0.2,0.7,0.3875,1.325,0.3375,1.9125
		c0,0-0.05,0.425-0.15,0.6c-0.2625,0.4375-0.625,0.875-1.075,1.3c-0.4125,0.4-0.8375,0.8-1.175,1.325
		c-0.8625,1.3375-0.775,2.8-0.7,4.225c0.0625,1.15,0.125,2.225-0.3375,3.1375c-0.5125,1.0125-1.575,1.6375-2.7,2.3
		s-2.2875,1.3375-3.075,2.4875c-0.2625,0.3875-0.4625,0.7875-0.65,1.175c-0.1375,0.2875-0.275,0.575-0.4375,0.825
		c-0.575,0.9375-1.5125,1.6375-2.4125,2.3125c-2.5875,1.95-5.4875,4.125-8.575,5.3875c-0.05-0.0375-0.0875-0.1-0.15-0.1375
		c-0.4375-0.325-0.9125-0.4625-1.4-0.4875c1.25-1.7375,2.0625-3.7875,2.3625-6c0.05-0.35,0.075-0.7,0.1125-1.05
		c0.1-1.1375,0.2-2.225,0.7625-3.0875c0.375-0.5625,0.9375-1.025,1.55-1.5125c0.9-0.7375,1.8375-1.5,2.2375-2.7125
		c0.2375-0.725,0.2125-1.4375,0.2-2.0625c-0.0125-0.525-0.0375-1.0125,0.1-1.4625c0.275-0.9375,1.15-1.625,2.0875-2.35
		c0.4125-0.3125,0.825-0.65,1.2125-1c1.575-1.475,2.6-3.6875,2.8875-6.1375c1.8125-0.6625,3.475-1.875,4.7-3.475
		c0.0625-0.0875,0.3625-0.45,0.425-0.5625C182.2901,184.11,183.4276,182.61,184.3775,182.8975"/>
	<path fill="#FFF685" d="M135.8025,238.385c0.1625-0.3125,0.3-0.6375,0.45-0.9625c0.475-1.05,0.925-2.025,1.7375-2.65
		c0.5375-0.4125,1.225-0.6625,1.9625-0.925c1.1-0.4,2.225-0.8,3.0125-1.8125c0.4625-0.6,0.675-1.2875,0.8625-1.8875
		c0.1625-0.5,0.3-0.975,0.575-1.3375c0.5625-0.8,1.625-1.15,2.7375-1.525c0.4875-0.1625,0.9875-0.3375,1.475-0.55
		c1.975-0.875,3.6625-2.625,4.75-4.8375c1.9375-0.025,3.9-0.625,5.5875-1.725c0.175-0.1125,0.3625-0.2375,0.5625-0.375
		c0.1875-0.125,0.375-0.25,0.575-0.375v0.0125c0.0125-0.0125,0.0375-0.025,0.05-0.0375c1.1375-0.725,2.3625-1.4,3.0375-0.9
		c0.5125,0.375,0.4,1.375,0.075,2.15c-0.1,0.25-0.2375,0.5-0.375,0.7625c-0.125,0.1875-0.2375,0.375-0.3125,0.575l0,0
		c-0.3375,0.625-0.675,1.275-0.85,1.9875c-0.1625,0.625-0.1875,1.25-0.225,1.85c-0.0375,0.725-0.075,1.375-0.3125,1.9125
		c0,0-0.275,0.45-0.3375,0.5125c-0.35,0.375-0.875,0.6125-1.4375,0.875c-0.525,0.2375-1.0625,0.4875-1.55,0.8625
		c-1.25,0.9875-1.6625,2.3875-2.0625,3.75c-0.325,1.1-0.625,2.15-1.3625,2.85c-0.825,0.7875-2.025,1.025-3.3125,1.275
		c-1.275,0.25-2.6,0.5125-3.725,1.3375c-0.375,0.275-0.7,0.5875-1,0.8875c-0.225,0.225-0.45,0.45-0.6875,0.6375
		c-0.85,0.6875-1.9625,1.05-3.0375,1.3875c-3.975,1.275-12.8375,3.35-17.2,2.95c0-0.0375,0.0125-0.075,0.0125-0.1125
		C127.6275,244.2225,134.0775,241.785,135.8025,238.385"/>
	<path fill="#FFF685" d="M59.7276,225.085c2.5,0.65,4.8625,1.2625,7.0625,2.4375c2.5625,1.3625,4.025,3.85,5.7375,6.725
		c2.0875,3.525,4.6625,7.875,10.1375,11.45c-10.325-1.075-19.675-4.7625-25.3625-10.075
		c-4.4125-4.1125-7.9125-10.1125-9.6875-16.425c0.4125,0.35,0.8375,0.6875,1.275,1.0125c0.15,0.125,0.3,0.225,0.4125,0.325
		c1.525,1.225,3.2875,2.2125,5.2125,2.9625C56.215,224.1725,58.0026,224.635,59.7276,225.085"/>
	<path fill="#FFF685" d="M33.0651,192.2475c1.375,1.2125,2.8875,2.275,4.35,3.2875c2.125,1.475,4.125,2.875,5.775,4.7375
		c3.675,4.1375,4.3875,9.8625,5.075,15.4125c0.0875,0.7,0.175,1.425,0.275,2.1375c-0.6625-0.5625-1.3-1.1875-1.5875-1.7
		c-0.2125-0.375-0.6625-0.5375-1.075-0.3875c-0.4125,0.15-0.6375,0.575-0.5625,0.9875c0.1625,0.8,0.35,1.6,0.5625,2.4
		c-6.2625-3.4625-11.4625-8.6875-14.4125-14.55c-2.7125-5.3875-3.925-12.225-3.4-18.7625c0.2625,0.4625,0.55,0.9375,0.8375,1.4
		c0.1,0.1625,0.2,0.3125,0.275,0.4375C30.215,189.335,31.515,190.885,33.0651,192.2475"/>
	<path fill="#FFF685" d="M26.0525,160.6225c1.5,2.1,2.925,4.0875,3.8625,6.4c2.075,5.1,0.8375,10.6375-0.3625,16
		c-0.1125,0.475-0.2125,0.9625-0.325,1.45c-0.3375-0.6375-0.625-1.275-0.7-1.75c-0.0625-0.425-0.425-0.7375-0.8625-0.75
		c-0.45-0.0125-0.8,0.3125-0.875,0.7375c-0.175,1.0625-0.3,2.15-0.375,3.2375c-4.8625-5.5-8.1875-12.4125-8.9875-18.7875
		c-0.7-5.6375,0.275-12.0375,2.6375-17.7625l0.0375-0.0125c0-0.0125-0.0125-0.0125-0.0125-0.025
		c0.1375-0.3375,0.2875-0.675,0.4375-1.0125c0.1,0.525,0.2125,1.0625,0.325,1.6c0.0375,0.2,0.075,0.3625,0.1125,0.5125
		c0.3875,1.9125,1.1,3.8,2.1,5.6125C23.9525,157.6725,25.015,159.1725,26.0525,160.6225"/>
	<path fill="#FFF685" d="M28.3151,130.3975c0.3625,5.4125-2.6125,10.325-5.5,15.075c-0.275,0.45-0.55,0.925-0.8375,1.3875
		c-0.05-0.4875-0.0625-0.95,0-1.2875c0.075-0.425-0.1625-0.8375-0.5625-0.9875c-0.4125-0.15-0.8625,0.025-1.075,0.4
		c-0.4125,0.7625-0.8,1.5375-1.175,2.325c-2.8375-6.875-3.925-14.7875-2.7625-20.7c1.175-5.9125,4.4125-12.0625,8.8375-16.9
		c-0.075,0.525-0.1375,1.075-0.1875,1.6125c-0.025,0.2-0.0375,0.375-0.0625,0.525c-0.225,1.95-0.15,3.9625,0.2375,5.9875
		c0.3375,1.8,0.8875,3.5625,1.4125,5.275C27.4275,125.585,28.1525,127.91,28.3151,130.3975"/>
	<path fill="#FFF685" d="M58.89,47.46c-0.125,0.15-0.225,0.275-0.3125,0.3875c-1.2,1.4125-2.1875,3.0375-2.95,4.8375
		c-0.675,1.6-1.1625,3.2625-1.6375,4.8875c-0.6875,2.3375-1.3375,4.55-2.5,6.575c-2.5875,4.525-7,6.6375-11.675,8.8625
		c-0.3625,0.175-0.725,0.35-1.0875,0.525c0.2375-0.55,0.4875-1.0375,0.75-1.35c0.2875-0.325,0.2875-0.8125,0-1.1375
		c-0.2875-0.3375-0.75-0.4125-1.125-0.1875c-0.825,0.5-1.625,1.0375-2.4125,1.6c1.325-7.1,4.325-13.5125,8.2375-17.45
		c3.975-4,9.6625-7.1125,15.625-8.6125C59.49,46.7475,59.1901,47.11,58.89,47.46"/>
	<path fill="#FFF685" d="M36.8151,73.86c-0.175,0.5-0.35,1.025-0.5125,1.55c-0.0625,0.1875-0.1125,0.3625-0.1625,0.5
		c-0.6125,1.8625-0.95,3.85-0.975,5.9125c-0.025,1.8375,0.15,3.675,0.325,5.45c0.25,2.575,0.5,5,0.15,7.475
		c-0.7625,5.55-4.275,9.4375-8.0125,13.55c-0.1875,0.2-0.375,0.4125-0.5625,0.625c0.1125-0.5375,0.2625-1.025,0.4375-1.3625
		c0.2125-0.375,0.1125-0.85-0.2375-1.1125c-0.35-0.2625-0.825-0.25-1.1375,0.05c-1.05,0.975-2.0375,2.0125-2.975,3.1125
		c-1.5125-7.2-0.9375-14.925,1.6-20.95C27.1026,83.0725,31.5026,77.71,36.8151,73.86"/>
	<path fill="#FFF685" d="M193.7901,151.01c0,0.5125-0.225,1.05-0.475,1.6125c-0.225,0.525-0.45,1.0625-0.5625,1.675
		c-0.2625,1.575,0.3875,2.8875,1.0125,4.1625c0.5125,1.025,0.9875,2,0.925,3.025c-0.075,1.1375-0.8,2.125-1.575,3.175
		s-1.575,2.125-1.85,3.5c-0.0875,0.4625-0.1125,0.9-0.1375,1.3375c-0.0125,0.325-0.0375,0.6375-0.075,0.925
		c-0.1625,1.0875-0.75,2.1-1.3,3.075c-1.4875,2.6-3.175,5.5125-5.2875,7.8125c-0.7-0.1-1.3375,0.1125-1.925,0.5125
		c0.325-2.025,0.2-4.225-0.4-6.4125c-0.1-0.3375-0.2-0.675-0.3125-1.0125c-0.35-1.0875-0.6875-2.125-0.5-3.1375
		c0.125-0.6625,0.4625-1.3125,0.825-2c0.5375-1.025,1.1-2.1,1-3.375c-0.0625-0.75-0.3625-1.4-0.625-1.975
		c-0.225-0.475-0.425-0.925-0.4875-1.375c-0.1125-0.9625,0.425-1.95,1-2.975c0.25-0.45,0.5125-0.9125,0.725-1.4
		c0.875-1.975,0.9375-4.4125,0.25-6.775c1.275-1.2,2.25-2.7625,2.8-4.5c0.1125-0.3375,0.2-0.6625,0.275-0.9875
		c0.0125-0.0625,0.0375-0.1375,0.05-0.2c0.375-1.4875,0.825-3.3375,1.825-3.45c0.6375-0.075,1.225,0.75,1.5125,1.5375
		c0.1375,0.4,0.25,0.8125,0.35,1.2625c0.1875,0.75,0.375,1.5125,0.7625,2.225c0.3,0.5625,0.7,1.05,1.0875,1.5125
		C193.2525,149.535,193.7901,150.185,193.7901,151.01"/>
	<path fill="#FFF685" d="M78.8275,20.1225c2.3875-0.975,4.975-1.825,8.15-2.7c11.5875-3.175,15.925-9.0125,17.525-12.575
		c1.6,3.5625,5.925,9.4,17.525,12.575c3.175,0.875,5.7625,1.725,8.15,2.7c7.95,3.2375,14.5375,7.225,20.0875,12.1625l-19.6875,23.75
		c-0.0125,0.0125-0.0125,0.025-0.0125,0.025c-8-4.725-16.8125-7.35-26.0625-7.35s-18.05,2.625-26.05,7.35
		c0-0.0125-0.0125-0.0125-0.0125-0.025l-19.6875-23.75C64.2901,27.3475,70.865,23.36,78.8275,20.1225"/>
	<path fill="#ED1C24" d="M91.3275,42.035c-0.0875,0.6125-0.1875,0.9-0.2875,0.8625c-0.1125-0.0375-0.2-0.325-0.2625-0.9
		c-0.0875-1-0.2375-2.025-0.45-3.0875c-0.2125-1.0625-0.5-2.1125-0.825-3.1625c-0.3375-1.0375-0.7375-2.0625-1.2-3.05
		c-0.4625-0.9875-1-1.9-1.6125-2.75c-0.2875-0.4125-0.3375-0.85-0.1625-1.3c0.1125-0.475,0.2375-0.95,0.3875-1.4
		c0.15-0.45,0.2875-0.925,0.3875-1.4c0.0875-0.2875,0.175-0.45,0.2625-0.5c0.0875-0.05,0.2,0.05,0.3625,0.3125
		c0.7125,1.1125,1.35,2.325,1.8875,3.65c0.5375,1.325,0.975,2.7,1.2875,4.1375s0.5,2.8875,0.55,4.35
		C91.69,39.2475,91.59,40.66,91.3275,42.035"/>
	<path fill="#ED1C24" d="M104.5525,29.335c-0.4375,0.65-0.9625,1.075-1.6,1.2875c-0.625,0.2-1.3,0-2.025-0.6
		c-0.175-0.175-0.275-0.25-0.2875-0.2125c-0.025,0.0375-0.125,0.15-0.325,0.3375c-0.3875,0.45-0.7875,0.7625-1.2,0.9125
		c-0.1125,0.05-0.1625,0.075-0.175,0.0875c-0.0125,0.0125,0,0.0875,0.05,0.25c0.5625,1.7625,0.9125,3.5375,1.0625,5.3375
		c0.1375,1.8,0.025,3.6375-0.3375,5.5c-0.1125,0.5-0.2,0.725-0.275,0.6875c-0.075-0.0375-0.1375-0.3-0.175-0.775
		c-0.2375-2.5-0.6875-4.7375-1.3375-6.725s-1.5625-3.8-2.7375-5.425c-0.3-0.4375-0.4-0.875-0.3-1.3375
		c0.125-0.45,0.275-0.925,0.425-1.4125c0.15-0.4875,0.325-1,0.525-1.55c0.0625-0.175,0.125-0.2875,0.1625-0.3375
		s0.125,0,0.225,0.175c0.325,0.3875,0.7375,0.7625,1.225,1.125c0.4875,0.3625,0.9875,0.5625,1.4875,0.6
		c0.2875,0.025,0.55-0.025,0.8-0.125c0.25-0.1125,0.4875-0.2625,0.7-0.45c0.2125-0.2,0.4-0.4125,0.55-0.65
		s0.2875-0.4875,0.3875-0.75c0.1125-0.3,0.2-0.425,0.275-0.375c0.075,0.05,0.175,0.175,0.3125,0.375
		c0.2,0.375,0.4125,0.675,0.65,0.925s0.5875,0.375,1.0375,0.375c0.8875,0,1.525-0.45,1.925-1.3375
		c0.0875-0.2375,0.1625-0.3625,0.25-0.375c0.075-0.0125,0.1,0.125,0.0875,0.4125c-0.05,0.7-0.175,1.4-0.4125,2.1375
		C105.2525,28.1225,104.94,28.7725,104.5525,29.335"/>
	<path fill="#ED1C24" d="M109.4275,36.0725c-0.2125,0.5625-0.475,1.075-0.7875,1.525c-0.375,0.45-0.6625,0.6875-0.9,0.7
		c-0.225,0.0125-0.5625-0.1-0.9875-0.3375c-0.325-0.15-0.625-0.3-0.9-0.45s-0.5375-0.3-0.8-0.45
		c-0.2125-0.125-0.325-0.225-0.325-0.2875s0.0375-0.2125,0.125-0.45c0.2125-0.475,0.425-0.9625,0.6375-1.45
		c0.2-0.4875,0.4125-0.975,0.6375-1.45c0.125-0.2875,0.25-0.4375,0.375-0.45c0.125-0.025,0.3,0.0375,0.5375,0.1625
		c0.3625,0.2,0.75,0.4125,1.1375,0.6375c0.3875,0.225,0.7375,0.4875,1.0375,0.8c0.2375,0.2375,0.35,0.475,0.3375,0.7125
		C109.565,35.4975,109.515,35.7725,109.4275,36.0725"/>
	<path fill="#ED1C24" d="M122.5525,27.51c0,0.35-0.025,0.6625-0.0875,0.925c-0.05,0.275-0.1875,0.5375-0.4125,0.8
		c-1.525,1.85-2.675,3.8375-3.45,5.975c-0.7875,2.1375-1.3625,4.3875-1.725,6.7625c-0.1125,0.625-0.2375,0.9375-0.375,0.9125
		s-0.25-0.35-0.3375-0.975c-0.45-4.1875-1.95-8.0125-4.4875-11.4625c-0.175-0.2625-0.2875-0.4875-0.325-0.7
		c-0.05-0.2-0.0375-0.475,0.0375-0.8c0.0625-0.4125,0.15-0.8625,0.25-1.3375s0.2-1.0125,0.3125-1.6
		c0.0625-0.35,0.2-0.375,0.3875-0.1c2.2625,3.475,3.7125,6.6625,4.3625,9.575c0.0875,0.2625,0.175,0.2625,0.2625,0
		c0.175-0.85,0.425-1.7125,0.7625-2.5875c0.3375-0.875,0.725-1.75,1.175-2.625c0.45-0.875,0.9375-1.7125,1.4875-2.5375
		c0.5375-0.825,1.1125-1.5875,1.6875-2.275c0.2125-0.2625,0.35-0.375,0.4125-0.3375c0.05,0.0375,0.0875,0.1875,0.0875,0.475V27.51
		H122.5525z"/>
</g>
<g>
	<path fill="#ED1C24" d="M114.9791,287.1231c-0.3999,0.2666-1.1926,1.6486-2.0204,1.0102c-0.8208-0.6384-0.449-0.5823-0.8488,0.0561
		c-0.3999,0.6384-0.3999,0.6664-0.8488,0.9541c-0.449,0.2946-0.8488,0.3718-1.4381,0.3718c-0.5823,0-0.7436-0.0561-1.0593-0.7436
		c-0.3157-0.6945-1.2768,0.5051-0.9541,2.0204c0.3157,1.5153,1.9643,0.905,2.5535,0.6875c0.5823-0.2104,0.477-0.5612,1.3259-0.3157
		c0.8488,0.2385,2.4413-0.3999,3.4024-1.8099C116.0454,287.9509,115.379,286.8636,114.9791,287.1231"/>
	<path fill="#ED1C24" d="M179.7436,355.4163c1.1224-1.5223,0.8699-2.6447-0.2315-4.1039c-0.919-1.2206-2.2308-2.301-2.8271-2.329
		c-1.0312-0.0561-5.0019,6.4119-4.9808,6.468c0.1052,0.2666,2.7991,1.375,3.2831,2.4623
		C176.0677,360.3831,178.9579,356.4826,179.7436,355.4163"/>
	<path fill="#ED1C24" d="M67.6825,350.4215c0.3157-1.3539-1.1926-2.2028-1.9152-2.6588c-0.7156-0.449-2.1817-2.0976-3.0306-0.905
		c-0.8488,1.1996-2.9253,4.2793-3.6128,5.6332c-0.6875,1.3539,1.1154,1.4101,2.0695,2.1817
		c0.9541,0.7717,0.8488,0.7436,1.1154,1.2768c0.47,0.9401,3.0236-1.9783,3.3954-2.4272
		C66.6442,352.4138,67.5071,351.1511,67.6825,350.4215"/>
	<path fill="#ED1C24" d="M75.8131,349.7831c0.3437-1.6486-1.9152-3.3463-3.0306-3.9846c-1.1154-0.6384-0.905-0.5822-1.4381,0
		c-0.5332,0.5823-1.3539,1.9152-2.0204,2.7079c-0.6664,0.7997-1.1996,1.6766-1.8099,2.8131
		c-0.6103,1.1435,0.2946,0.9821,1.7538,2.1256s1.1435,2.287,2.4483,1.5924C73.0211,354.357,75.4694,351.4317,75.8131,349.7831"/>
	<path fill="#ED1C24" d="M40.0986,319.3861c-0.3788,0.1052-3.0306,4.8335-3.4515,6.005c-0.4279,1.1715,0.7997,1.6977,1.7538,2.3361
		c0.9541,0.6384,0.9821,0.6384,1.3259,1.1154c1.375,1.9011,2.2308,0.4911,3.7672-1.845c0.6664-1.0102,1.1715-2.0835,1.2277-2.8341
		c0.1333-1.6766-0.7997-2.5255-1.5925-3.1358C42.3295,320.4244,40.4775,319.2809,40.0986,319.3861"/>
	<path fill="#ED1C24" d="M180.7538,308.3021c0.449-2.287-0.3438-1.4381-0.7436-0.4279s-0.3718,1.0873-0.6875,2.0695
		c-0.3157,0.9821-0.7155,1.2417-1.4872,4.0407c-0.7717,2.7991-2.6938,15.5107-2.4483,19.1866
		c0.2455,3.669,1.9923,4.616,3.8654,4.602c1.8731-0.0211,4.609-6.7487,4.6371-8.3762c0.0351-1.6205,0.1052-2.5746-0.7436-0.5822
		c-0.8488,1.9923-3.4515,1.6766-4.3073-1.1154C177.9898,324.9071,180.3049,310.582,180.7538,308.3021"/>
	<path fill="#ED1C24" d="M24.8475,339.0498c0.1333,3.1989,0.8488,5.7805,4.8335,8.1727c2.6307,1.2347,5.9419,1.403,8.5656,0.5331
		c4.0408-1.3329,8.0324-4.63,9.9827-7.4852c1.7889-2.6237,3.0937-5.1983,4.0338-8.2289c1.0874-3.5006,2.0344-7.822,2.1326-9.5758
		c0.0561-0.9821,0.1052-1.7819,0.1614-2.6588c0.0561-0.8769,0.0281-1.7538,0.1052-2.6026s1.1154-5.521,0.2666-5.2053
		c-0.8488,0.3087-3.1358,5.7946-3.2972,7.387c-0.1614,1.5924-0.1052,2.7921-0.1614,4.4126s0.2385,2.5536,0.0561,4.623
		c-0.1894,2.0695-1.859,5.3386-3.5076,7.0152c-2.7009,2.743-6.6715,4.0899-10.4176,4.5669
		c-1.2487,0.1613-3.3743-0.0561-4.1951-0.2666c-2.3641-0.6103-4.9317-1.8941-5.6332-4.4126
		c-0.5823-2.0975-0.0772-6.6715,0.7997-8.6077c0.8769-1.9432,1.1926-2.8131,1.5434-3.6129c0.3437-0.7997,1.7328-3.4795,1.1154-3.718
		c-0.6173-0.2385-3.6479,6.4259-4.153,7.5484C25.3597,330.7438,24.8475,334.9108,24.8475,339.0498"/>
	<path fill="#ED1C24" d="M76.9847,319.2809c-0.7156,0.3718-1.4381,2.1537-2.3361,2.8131c-0.905,0.6664-3.7461,2.308-4.3565,3.0305
		c-0.6103,0.7156-0.6103,0.8488-1.1154,1.4872c-0.442,0.5612-0.6594,1.6135-1.361,3.0376
		c-1.1435,2.9043-3.4796,4.4897-5.6964,5.7665c-0.4209,0.2455-4.7984,2.5676-4.9527,2.785
		c-0.2666,0.3718-0.7997,1.5433-0.1052,1.6977c1.5504,0.3578,6.475-1.3188,7.8641-2.3361c1.5925-1.1715,2.8131-5.4438,3.7181-6.6995
		c0.905-1.2487,1.9152-2.0976,2.8131-2.4413c0.905-0.3438,2.3922-1.3048,3.0797-2.1817c0.6875-0.8769,1.4311-2.7079,1.859-3.3463
		C76.8233,322.2554,77.7002,318.9091,76.9847,319.2809"/>
	<path fill="#ED1C24" d="M169.298,293.4789c1.1224-1.5223,0.8699-2.6447-0.2315-4.1039c-0.919-1.2207-2.2309-2.301-2.8271-2.3291
		c-1.0312-0.0561-5.0018,6.4119-4.9808,6.468c0.1052,0.2666,2.7991,1.375,3.2831,2.4623
		C165.615,298.4457,168.5123,294.5382,169.298,293.4789"/>
	<path fill="#ED1C24" d="M86.6025,299.989c-0.456,0.4069-2.3641,4.9457-2.6026,5.7946s-0.6103,2.1537-0.8488,3.3463
		c-0.7156,3.5637-0.6735,7.5414-1.3259,11.1051c-0.3157,1.7257-0.477,2.9464-0.5823,3.6128
		c-0.1052,0.6664-0.9541,3.7742-0.1052,2.7079c0.8488-1.0593,1.9362-4.1951,2.6026-5.7946
		c0.6664-1.5924,1.2487-5.2053,1.4381-6.8539c0.1824-1.6486,0.4279-2.3641,0.5332-3.669c0.1824-2.2028,0.3788-5.1211,0.9541-7.2257
		C86.813,302.4304,87.0585,299.5822,86.6025,299.989"/>
	<path fill="#ED1C24" d="M66.3566,303.0687c-0.4279,0.2385-1.7819,3.9566-2.287,5.4228c-0.5051,1.4592-0.9821,4.3074-1.382,6.4821
		c-0.3999,2.1817-0.6384,5.2614-0.7436,7.0152c-0.1052,1.7538-0.3999,2.7079-0.5332,3.3463
		c-0.1333,0.6384-1.5433,3.9566-0.0561,2.6026c1.4872-1.3539,3.5637-9.3513,3.9846-11.7435
		c0.4279-2.3922,0.5332-5.3947,0.7436-7.0714s0.3438-2.5746,0.5332-3.4024c0.1894-0.8208,0.2946-0.9821,0.3718-1.5434
		C67.0722,303.6229,66.7775,302.8302,66.3566,303.0687"/>
	<path fill="#ED1C24" d="M206.3033,277.7227c-3.2481,2.1747-5.3456,3.7742-8.9865,5.8297
		c-4.9247,2.771-9.9336,5.5981-15.0056,8.1026c-2.5255,1.2487-9.8564,5.4438-11.6944,7.864
		c-1.831,2.4203-2.4132,3.0657-3.7742,5.9489c-1.3609,2.8833-3.0376,8.6077-3.669,10.9999
		c-1.1014,4.2021-2.1396,6.2155-6.1664,8.5024c-3.5076,1.9923-9.7652,3.8163-14.5075,4.7283
		c-4.7493,0.912-15.9316,1.2697-19.8741,0.9541c-3.9426-0.3087-5.521-0.8208-7.0152-2.0695
		c-1.4942-1.2487-0.898-3.3533-1.382-3.2972c-0.4841,0.0631-0.8278,3.206-1.0102,4.146c-0.1824,0.9401-0.5261,2.0485-0.3157,4.3074
		c0.2105,2.2519,3.5778,3.234,6.2716,3.718c2.6938,0.4841,10.4948,0.4771,16.6892-0.3157
		c6.1944-0.7997,16.591-3.5357,21.5227-8.3411c0.3508-0.3438,4.5669-5.4929,4.623-5.4228c0.1684,0.2175-0.5542,3.0025-0.6384,4.0899
		c-0.0772,1.0874-0.1894,2.3361-0.3718,4.3565c-0.1894,2.0204-0.3438,5.4719,1.859,7.4922
		c2.2028,2.0204,4.4477-0.5051,5.3667-2.2308c0.5752-1.0804,1.7678-3.7531,2.1186-5.4298c0.1684-0.8208,0.0421-1.4381-0.2596-1.4241
		c-0.5121,0.014-1.2768,4.2372-4.5388,1.1295c-0.8208-1.1224-1.1786-2.4834-1.1996-4.0478
		c-0.0702-4.9668,1.3329-11.1612,2.315-15.6019c0.4841-2.1747,1.1505-4.7282,1.831-6.8258
		c0.5332-1.6486,0.9821-2.0975,2.8692-3.4515c1.8871-1.3539,9.674-5.7665,12.4871-7.387c6.91-3.9776,14.6408-7.7729,21.1509-12.1153
		c0.6594-0.442,1.5223-1.4942,2.0484-2.4974C207.58,278.4313,207.8256,276.6985,206.3033,277.7227"/>
	<path fill="#ED1C24" d="M91.864,316.566c-0.1614-0.4279-0.5332-0.6875-0.9541,0.1052c-2.4202,4.5318-4.2442,7.7378-5.9559,12.7537
		c-0.8909,2.6167-1.5363,7.1836-1.1715,9.9406c0.2525,1.9081,1.1294,4.7914,2.3922,6.1664c2.322,2.5185,6.8328,3.0727,9.9897,2.0204
		c4.4617-1.4872,8.2429-4.4757,10.5579-9.3162c1.0663-2.2238,1.845-3.9846,2.4132-6.2225c0.5963-2.3571,1.9993-7.1625-0.4209-9.1759
		c-0.3858-0.3157-0.8208-0.6594-1.2838-0.9821c-1.0733-0.7366-2.0134-1.4381-1.9222-2.4974
		c0.0561-0.6665,0.5402-1.3048,0.8629-2.1256c0.2385-0.6173,0.6103-1.389,0.8979-1.9152c0.3929-0.7226,0.2736-0.7085,1.0032-0.2946
		c0.7506,0.4279,1.7538,0.9891,3.0586,0.3578c1.1435-0.5542,2.0484-1.7608,2.7009-3.0236c0.6244-1.2066,1.0102-2.5535,1.1154-3.711
		c0.1052-1.1154-0.6524-3.4094-1.6135-3.2621c-0.9611,0.1473-1.0032,2.3711-2.0134,2.1888
		c-1.0102-0.1824-1.4381-0.3157-1.9152-1.859c-0.477-1.5434-0.1614-5.4999,0.1614-6.9591c0.3157-1.4592,0.2666-1.1154,0.3157-1.6977
		c0.0561-0.5822-0.3718-1.5714-0.7436-0.7997c-0.5121,1.0593-1.375,4.153-1.6556,5.4368c-0.3999,1.7959-0.6173,4.167-0.8909,5.9068
		c-0.3227,2.0625-0.3087,3.5918-0.5963,5.5911c-0.2525,1.7679-1.2838,4.0408-2.322,6.2015
		c-1.0383,2.1537-1.8941,4.2302-1.7889,5.7665c0.1894,2.6938,2.322,3.241,4.0267,3.9636c1.7328,0.7296,2.8412,1.6065,0.47,4.9668
		c-3.1218,4.4196-8.3972,6.0261-12.1995,6.0121c-3.9145-0.0211-6.5452-1.2978-7.7869-5.3105
		c-0.3297-1.0663-0.2525-3.2691,0.2806-5.542c0.6735-2.8692,1.9362-5.8647,2.5395-7.1064
		C90.482,319.9684,92.0253,316.994,91.864,316.566"/>
</g>
</svg>
