<svg id="svg" xmlns="http://www.w3.org/2000/svg" xmlns:xlink="http://www.w3.org/1999/xlink" width="400" height="398.00000000000006" viewBox="0, 0, 400,398.00000000000006"><g id="svgg"><path id="path0" d="M110.415 101.421 C 99.720 106.078,100.611 122.077,111.783 125.969 C 120.350 128.954,129.005 122.735,128.996 113.602 C 128.987 103.655,119.528 97.454,110.415 101.421 M49.500 119.206 C 38.908 122.908,38.997 122.343,39.017 185.218 C 39.039 253.550,40.028 258.828,56.094 276.361 C 97.074 321.084,168.045 291.548,167.993 229.792 C 167.952 180.980,121.113 149.247,81.297 171.055 C 77.336 173.225,73.623 175.000,73.047 175.000 C 72.342 175.000,72.000 165.688,72.000 146.500 L 72.000 118.000 62.250 118.079 C 56.888 118.122,51.150 118.630,49.500 119.206 M200.069 120.521 C 191.899 126.291,192.500 118.909,192.500 213.489 L 192.500 297.500 201.249 297.789 C 227.061 298.641,226.000 302.852,226.000 199.557 L 226.000 118.000 214.750 118.049 C 204.499 118.094,203.195 118.313,200.069 120.521 M253.693 166.675 L 249.885 167.128 250.207 210.814 L 250.528 254.500 253.055 261.015 C 267.962 299.456,315.830 310.187,344.530 281.522 C 360.057 266.014,361.000 261.849,361.000 208.790 L 361.000 167.000 350.401 167.000 C 328.569 167.000,328.646 166.837,328.000 214.000 L 327.500 250.500 324.704 255.256 C 316.949 268.450,298.848 269.818,288.711 257.976 C 283.377 251.744,283.002 248.717,282.984 211.807 C 282.961 166.847,280.759 163.454,253.693 166.675 M116.897 198.541 C 140.937 211.625,140.921 249.384,116.871 262.474 C 95.750 273.969,70.659 256.609,70.659 230.500 C 70.659 204.333,95.717 187.013,116.897 198.541 " stroke="none" fill="#307ee1" fill-rule="evenodd"></path></g></svg>