<svg width="100%" height="100%" id="svg" viewBox="0 0 1440 590" xmlns="http://www.w3.org/2000/svg" class="transition duration-300 ease-in-out delay-150"><defs><linearGradient id="gradient" x1="0%" y1="50%" x2="100%" y2="50%"><stop offset="5%" stop-color="#1e489d"></stop><stop offset="95%" stop-color="#d01776"></stop></linearGradient></defs><path d="M 0,600 L 0,150 C 83.27272727272728,160.59330143540672 166.54545454545456,171.1866028708134 275,180 C 383.45454545454544,188.8133971291866 517.0909090909091,195.8468899521531 612,193 C 706.9090909090909,190.1531100478469 763.0909090909091,177.42583732057415 849,228 C 934.9090909090909,278.57416267942585 1050.5454545454545,392.44976076555025 1154,440 C 1257.4545454545455,487.55023923444975 1348.7272727272727,468.77511961722485 1440,450 L 1440,600 L 0,600 Z" stroke="none" stroke-width="0" fill="url(#gradient)" fill-opacity="0.53" class="transition-all duration-300 ease-in-out delay-150 path-0"></path><defs><linearGradient id="gradient" x1="0%" y1="50%" x2="100%" y2="50%"><stop offset="5%" stop-color="#faa627"></stop><stop offset="95%" stop-color="#fff685"></stop></linearGradient></defs><path d="M 0,600 L 0,350 C 79.1866028708134,311.7894736842105 158.3732057416268,273.5789473684211 262,302 C 365.6267942583732,330.4210526315789 493.6937799043062,425.47368421052636 610,474 C 726.3062200956938,522.5263157894736 830.8516746411483,524.5263157894736 912,518 C 993.1483253588517,511.47368421052636 1050.8995215311004,496.42105263157896 1135,517 C 1219.1004784688996,537.578947368421 1329.5502392344497,593.7894736842105 1440,650 L 1440,600 L 0,600 Z" stroke="none" stroke-width="0" fill="url(#gradient)" fill-opacity="1" class="transition-all duration-300 ease-in-out delay-150 path-1"></path></svg>